<?xml version="1.0" encoding="utf-8"?>
<svg width="44px" height="40px" viewBox="0 0 44 40" version="1.1" xmlns:xlink="http://www.w3.org/1999/xlink" xmlns="http://www.w3.org/2000/svg">
  <desc>Created with Lunacy</desc>
  <defs>
    <path d="M0 1.999L0 22.001Q0 22.0992 0.00962573 22.1969Q0.0192515 22.2947 0.0384102 22.391Q0.057569 22.4873 0.0860763 22.5813Q0.114584 22.6753 0.152165 22.766Q0.189746 22.8567 0.236039 22.9433Q0.282333 23.0299 0.336892 23.1116Q0.391452 23.1932 0.453752 23.2691Q0.516052 23.3451 0.585494 23.4145Q0.654935 23.4839 0.730848 23.5462Q0.806761 23.6085 0.888415 23.6631Q0.970069 23.7177 1.05668 23.764Q1.14329 23.8103 1.23402 23.8478Q1.32474 23.8854 1.41872 23.9139Q1.5127 23.9424 1.60901 23.9616Q1.70533 23.9807 1.80306 23.9904Q1.9008 24 1.999 24L38.001 24Q38.0992 24 38.1969 23.9904Q38.2947 23.9807 38.391 23.9616Q38.4873 23.9424 38.5813 23.9139Q38.6753 23.8854 38.766 23.8478Q38.8567 23.8103 38.9433 23.764Q39.0299 23.7177 39.1116 23.6631Q39.1932 23.6085 39.2692 23.5462Q39.3451 23.4839 39.4145 23.4145Q39.4839 23.3451 39.5462 23.2691Q39.6085 23.1932 39.6631 23.1116Q39.7177 23.0299 39.764 22.9433Q39.8102 22.8567 39.8478 22.766Q39.8854 22.6753 39.9139 22.5813Q39.9424 22.4873 39.9616 22.391Q39.9807 22.2947 39.9904 22.1969Q40 22.0992 40 22.001L40 1.999Q40 1.9008 39.9904 1.80306Q39.9807 1.70533 39.9616 1.60901Q39.9424 1.5127 39.9139 1.41872Q39.8854 1.32474 39.8478 1.23402Q39.8102 1.14329 39.764 1.05668Q39.7177 0.970069 39.6631 0.888415Q39.6085 0.806761 39.5462 0.730848Q39.4839 0.654935 39.4145 0.585494Q39.3451 0.516052 39.2692 0.453752Q39.1932 0.391452 39.1116 0.336892Q39.0299 0.282333 38.9433 0.236039Q38.8567 0.189746 38.766 0.152165Q38.6753 0.114584 38.5813 0.0860763Q38.4873 0.057569 38.391 0.0384102Q38.2947 0.0192515 38.1969 0.00962573Q38.0992 0 38.001 0L1.999 0Q1.9008 0 1.80306 0.00962573Q1.70533 0.0192515 1.60901 0.0384102Q1.5127 0.057569 1.41872 0.0860763Q1.32474 0.114584 1.23402 0.152165Q1.14329 0.189746 1.05668 0.236039Q0.970069 0.282333 0.888415 0.336892Q0.806761 0.391452 0.730848 0.453752Q0.654935 0.516052 0.585494 0.585494Q0.516052 0.654935 0.453752 0.730848Q0.391452 0.806761 0.336892 0.888415Q0.282333 0.970069 0.236039 1.05668Q0.189746 1.14329 0.152165 1.23402Q0.114584 1.32474 0.0860763 1.41872Q0.057569 1.5127 0.0384102 1.60901Q0.0192515 1.70533 0.00962573 1.80306Q0 1.9008 0 1.999Z" transform="translate(2 15.19998)" id="path_1" />
    <path d="M0 1.999L0 4.001Q0 4.0992 0.00962573 4.19694Q0.0192515 4.29467 0.0384102 4.39099Q0.057569 4.4873 0.0860763 4.58128Q0.114584 4.67526 0.152165 4.76598Q0.189746 4.85671 0.236039 4.94332Q0.282333 5.02993 0.336892 5.11158Q0.391452 5.19324 0.453752 5.26915Q0.516052 5.34507 0.585494 5.41451Q0.654935 5.48395 0.730848 5.54625Q0.806761 5.60855 0.888415 5.66311Q0.970069 5.71767 1.05668 5.76396Q1.14329 5.81025 1.23402 5.84783Q1.32474 5.88542 1.41872 5.91392Q1.5127 5.94243 1.60901 5.96159Q1.70533 5.98075 1.80306 5.99037Q1.9008 6 1.999 6L18.001 6Q18.0992 6 18.1969 5.99037Q18.2947 5.98075 18.391 5.96159Q18.4873 5.94243 18.5813 5.91392Q18.6753 5.88542 18.766 5.84783Q18.8567 5.81025 18.9433 5.76396Q19.0299 5.71767 19.1116 5.66311Q19.1932 5.60855 19.2692 5.54625Q19.3451 5.48395 19.4145 5.41451Q19.4839 5.34507 19.5462 5.26915Q19.6085 5.19324 19.6631 5.11158Q19.7177 5.02993 19.764 4.94332Q19.8103 4.85671 19.8478 4.76598Q19.8854 4.67525 19.9139 4.58128Q19.9424 4.4873 19.9616 4.39099Q19.9807 4.29467 19.9904 4.19694Q20 4.0992 20 4.001L20 1.999Q20 1.9008 19.9904 1.80306Q19.9807 1.70533 19.9616 1.60901Q19.9424 1.5127 19.9139 1.41872Q19.8854 1.32474 19.8478 1.23402Q19.8103 1.14329 19.764 1.05668Q19.7177 0.970069 19.6631 0.888415Q19.6085 0.806761 19.5462 0.730848Q19.4839 0.654935 19.4145 0.585494Q19.3451 0.516052 19.2692 0.453752Q19.1932 0.391452 19.1116 0.336892Q19.0299 0.282333 18.9433 0.236039Q18.8567 0.189746 18.766 0.152165Q18.6753 0.114584 18.5813 0.0860763Q18.4873 0.057569 18.391 0.0384102Q18.2947 0.0192515 18.1969 0.00962573Q18.0992 0 18.001 0L1.999 0Q1.9008 0 1.80306 0.00962573Q1.70533 0.0192515 1.60901 0.0384102Q1.5127 0.057569 1.41872 0.0860763Q1.32474 0.114584 1.23402 0.152165Q1.14329 0.189746 1.05668 0.236039Q0.970069 0.282333 0.888415 0.336892Q0.806761 0.391452 0.730848 0.453752Q0.654935 0.516052 0.585494 0.585494Q0.516052 0.654935 0.453752 0.730848Q0.391452 0.806761 0.336892 0.888415Q0.282333 0.970069 0.236039 1.05668Q0.189746 1.14329 0.152165 1.23402Q0.114584 1.32474 0.0860763 1.41872Q0.057569 1.5127 0.0384102 1.60901Q0.0192515 1.70533 0.00962573 1.80306Q0 1.9008 0 1.999Z" transform="translate(12 15.19998)" id="path_2" />
    <path d="M0.292581 10.8992L0.293995 10.9006Q0.36357 10.9702 0.445381 11.0249Q0.527191 11.0795 0.618094 11.1172Q0.708998 11.1548 0.8055 11.174Q0.902002 11.1932 1.0004 11.1932Q1.09879 11.1932 1.19529 11.174Q1.29179 11.1548 1.3827 11.1172Q1.4736 11.0795 1.55541 11.0249Q1.63722 10.9702 1.70679 10.9006L10.9006 1.70682Q10.9702 1.63725 11.0248 1.55544Q11.0795 1.47362 11.1172 1.38272Q11.1548 1.29182 11.174 1.19532Q11.1932 1.09881 11.1932 1.00042Q11.1932 0.902028 11.174 0.805526Q11.1548 0.709023 11.1172 0.61812Q11.0795 0.527217 11.0248 0.445406Q10.9702 0.363596 10.9006 0.294022L10.8992 0.292607Q10.8296 0.223033 10.7478 0.168369Q10.666 0.113705 10.5751 0.0760512Q10.4842 0.0383979 10.3877 0.0192024Q10.2912 6.87837e-06 10.1928 6.87837e-06Q10.0944 6.87837e-06 9.99789 0.0192024Q9.90139 0.0383979 9.81048 0.0760512Q9.71958 0.113705 9.63777 0.168369Q9.55596 0.223033 9.48638 0.292607L0.292581 9.48641Q0.223007 9.55598 0.168343 9.63779Q0.113679 9.7196 0.0760253 9.81051Q0.038372 9.90141 0.0191765 9.99791Q-1.89982e-05 10.0944 -1.89941e-05 10.1928Q-1.89899e-05 10.2912 0.0191765 10.3877Q0.038372 10.4842 0.0760254 10.5751Q0.113679 10.666 0.168343 10.7478Q0.223007 10.8296 0.292581 10.8992Z" transform="translate(0.5767822 0.007232666)" id="path_3" />
    <path d="M0.292581 10.8992L0.293995 10.9006Q0.36357 10.9702 0.445381 11.0249Q0.527191 11.0795 0.618094 11.1172Q0.708998 11.1548 0.8055 11.174Q0.902002 11.1932 1.0004 11.1932Q1.09879 11.1932 1.19529 11.174Q1.29179 11.1548 1.3827 11.1172Q1.4736 11.0795 1.55541 11.0249Q1.63722 10.9702 1.70679 10.9006L10.9006 1.70682Q10.9702 1.63725 11.0248 1.55544Q11.0795 1.47362 11.1172 1.38272Q11.1548 1.29182 11.174 1.19532Q11.1932 1.09881 11.1932 1.00042Q11.1932 0.902028 11.174 0.805526Q11.1548 0.709023 11.1172 0.61812Q11.0795 0.527217 11.0248 0.445406Q10.9702 0.363596 10.9006 0.294022L10.8992 0.292607Q10.8296 0.223033 10.7478 0.168369Q10.666 0.113705 10.5751 0.0760512Q10.4842 0.0383979 10.3877 0.0192024Q10.2912 6.87837e-06 10.1928 6.87837e-06Q10.0944 6.87837e-06 9.99789 0.0192024Q9.90139 0.0383979 9.81048 0.0760512Q9.71958 0.113705 9.63777 0.168369Q9.55596 0.223033 9.48638 0.292607L0.292581 9.48641Q0.223007 9.55598 0.168343 9.63779Q0.113679 9.7196 0.0760253 9.81051Q0.038372 9.90141 0.0191765 9.99791Q-1.89982e-05 10.0944 -1.89941e-05 10.1928Q-1.89899e-05 10.2912 0.0191765 10.3877Q0.038372 10.4842 0.0760254 10.5751Q0.113679 10.666 0.168343 10.7478Q0.223007 10.8296 0.292581 10.8992Z" transform="matrix(-1 0 0 1 43.57721 0.00680542)" id="path_4" />
    <path d="M0 0.999L0 1.001Q0 1.09939 0.0191955 1.1959Q0.038391 1.2924 0.0760443 1.3833Q0.113698 1.4742 0.168362 1.55601Q0.223026 1.63783 0.2926 1.7074Q0.362175 1.77697 0.443985 1.83164Q0.525796 1.8863 0.616699 1.92396Q0.707602 1.96161 0.804105 1.9808Q0.900607 2 0.999 2L23.001 2Q23.0994 2 23.1959 1.9808Q23.2924 1.96161 23.3833 1.92396Q23.4742 1.8863 23.556 1.83164Q23.6378 1.77697 23.7074 1.7074Q23.777 1.63783 23.8316 1.55601Q23.8863 1.4742 23.924 1.3833Q23.9616 1.2924 23.9808 1.1959Q24 1.09939 24 1.001L24 0.999Q24 0.900607 23.9808 0.804105Q23.9616 0.707602 23.924 0.616699Q23.8863 0.525796 23.8316 0.443985Q23.777 0.362175 23.7074 0.2926Q23.6378 0.223026 23.556 0.168362Q23.4742 0.113698 23.3833 0.0760443Q23.2924 0.038391 23.1959 0.0191955Q23.0994 0 23.001 0L0.999 0Q0.900607 0 0.804105 0.0191955Q0.707602 0.038391 0.616699 0.0760443Q0.525796 0.113698 0.443985 0.168362Q0.362175 0.223026 0.2926 0.2926Q0.223026 0.362175 0.168362 0.443985Q0.113698 0.525796 0.0760443 0.616699Q0.038391 0.707602 0.0191955 0.804105Q0 0.900607 0 0.999Z" transform="matrix(-1 0 0 1 33.87708 0)" id="path_5" />
    <path d="M0 1.999L0 6.001Q0 6.0992 0.00962573 6.19694Q0.0192515 6.29467 0.0384102 6.39099Q0.057569 6.4873 0.0860763 6.58128Q0.114584 6.67525 0.152165 6.76598Q0.189746 6.85671 0.236039 6.94332Q0.282333 7.02993 0.336892 7.11158Q0.391452 7.19324 0.453752 7.26915Q0.516052 7.34507 0.585494 7.41451Q0.654935 7.48395 0.730848 7.54625Q0.806761 7.60855 0.888415 7.66311Q0.970069 7.71767 1.05668 7.76396Q1.14329 7.81025 1.23402 7.84783Q1.32474 7.88542 1.41872 7.91392Q1.5127 7.94243 1.60901 7.96159Q1.70533 7.98075 1.80306 7.99037Q1.9008 8 1.999 8L42.001 8Q42.0992 8 42.1969 7.99037Q42.2947 7.98075 42.391 7.96159Q42.4873 7.94243 42.5813 7.91392Q42.6752 7.88542 42.766 7.84783Q42.8567 7.81025 42.9433 7.76396Q43.0299 7.71767 43.1116 7.66311Q43.1932 7.60855 43.2692 7.54625Q43.3451 7.48395 43.4145 7.41451Q43.4839 7.34507 43.5462 7.26915Q43.6085 7.19324 43.6631 7.11158Q43.7177 7.02993 43.764 6.94332Q43.8102 6.85671 43.8478 6.76598Q43.8854 6.67525 43.9139 6.58128Q43.9424 6.4873 43.9616 6.39098Q43.9807 6.29467 43.9904 6.19694Q44 6.0992 44 6.001L44 1.999Q44 1.9008 43.9904 1.80306Q43.9807 1.70533 43.9616 1.60901Q43.9424 1.5127 43.9139 1.41872Q43.8854 1.32474 43.8478 1.23402Q43.8102 1.14329 43.764 1.05668Q43.7177 0.970069 43.6631 0.888415Q43.6085 0.806761 43.5462 0.730848Q43.4839 0.654935 43.4145 0.585494Q43.3451 0.516052 43.2691 0.453752Q43.1932 0.391452 43.1116 0.336892Q43.0299 0.282333 42.9433 0.236039Q42.8567 0.189746 42.766 0.152165Q42.6752 0.114584 42.5813 0.0860763Q42.4873 0.057569 42.391 0.0384102Q42.2947 0.0192515 42.1969 0.00962573Q42.0992 0 42.001 0L1.999 0Q1.9008 0 1.80306 0.00962573Q1.70533 0.0192515 1.60901 0.0384102Q1.5127 0.057569 1.41872 0.0860763Q1.32474 0.114584 1.23402 0.152165Q1.14329 0.189746 1.05668 0.236039Q0.970069 0.282333 0.888415 0.336892Q0.806761 0.391452 0.730848 0.453752Q0.654935 0.516052 0.585494 0.585494Q0.516052 0.654935 0.453752 0.730848Q0.391452 0.806761 0.336892 0.888415Q0.282333 0.970069 0.236039 1.05668Q0.189746 1.14329 0.152165 1.23402Q0.114584 1.32474 0.0860763 1.41872Q0.057569 1.5127 0.0384102 1.60901Q0.0192515 1.70533 0.00962573 1.80306Q0 1.9008 0 1.999L0 1.999Z" transform="translate(0 9.199982)" id="path_6" />
    <path d="M0 0.499L0 0.501Q0 0.550147 0.00958814 0.59835Q0.0191763 0.646553 0.0379841 0.691959Q0.0567919 0.737365 0.0840967 0.778229Q0.111401 0.819094 0.146154 0.853846Q0.180906 0.888599 0.22177 0.915903Q0.262635 0.943208 0.308041 0.962016Q0.353447 0.980824 0.40165 0.990412Q0.449853 1 0.499 1L24.501 1Q24.5501 1 24.5983 0.990412Q24.6465 0.980824 24.692 0.962016Q24.7374 0.943208 24.7782 0.915903Q24.8191 0.888599 24.8538 0.853846Q24.8886 0.819094 24.9159 0.778229Q24.9432 0.737365 24.962 0.691959Q24.9808 0.646553 24.9904 0.59835Q25 0.550147 25 0.501L25 0.499Q25 0.449853 24.9904 0.40165Q24.9808 0.353447 24.962 0.308041Q24.9432 0.262635 24.9159 0.22177Q24.8886 0.180906 24.8538 0.146154Q24.8191 0.111401 24.7782 0.0840967Q24.7374 0.0567919 24.692 0.0379841Q24.6465 0.0191763 24.5983 0.00958814Q24.5501 0 24.501 0L0.499 0Q0.449853 0 0.40165 0.00958814Q0.353447 0.0191763 0.308041 0.0379841Q0.262635 0.0567919 0.22177 0.0840967Q0.180906 0.111401 0.146154 0.146154Q0.111401 0.180906 0.0840967 0.22177Q0.0567919 0.262635 0.0379841 0.308041Q0.0191763 0.353447 0.00958814 0.40165Q0 0.449853 0 0.499Z" transform="translate(9.577271 30.20001)" id="path_7" />
    <clipPath id="clip_1">
      <use xlink:href="#path_1" />
    </clipPath>
    <clipPath id="clip_2">
      <use xlink:href="#path_2" />
    </clipPath>
    <clipPath id="clip_3">
      <use xlink:href="#path_3" />
    </clipPath>
    <clipPath id="clip_4">
      <use xlink:href="#path_4" />
    </clipPath>
    <clipPath id="clip_5">
      <use xlink:href="#path_5" />
    </clipPath>
    <clipPath id="clip_6">
      <use xlink:href="#path_6" />
    </clipPath>
    <clipPath id="clip_7">
      <use xlink:href="#path_7" />
    </clipPath>
  </defs>
  <g id="Box">
    <g id="Rectangle-110">
      <g clip-path="url(#clip_1)">
        <use xlink:href="#path_1" fill="none" stroke="#000000" stroke-width="4" stroke-linecap="square" />
      </g>
    </g>
    <g id="Rectangle-111">
      <g clip-path="url(#clip_2)">
        <use xlink:href="#path_2" fill="none" stroke="#000000" stroke-width="4" stroke-linecap="square" />
      </g>
    </g>
    <g id="Rectangle-113">
      <g clip-path="url(#clip_3)">
        <use xlink:href="#path_3" fill="none" stroke="#000000" stroke-width="4" stroke-linecap="square" />
      </g>
    </g>
    <g id="Rectangle-117">
      <g clip-path="url(#clip_4)">
        <use xlink:href="#path_4" fill="none" stroke="#000000" stroke-width="4" stroke-linecap="square" />
      </g>
    </g>
    <g id="Rectangle-115">
      <g clip-path="url(#clip_5)">
        <use xlink:href="#path_5" fill="none" stroke="#000000" stroke-width="4" stroke-linecap="square" />
      </g>
    </g>
    <g id="Rectangle-112">
      <g clip-path="url(#clip_6)">
        <use xlink:href="#path_6" fill="none" stroke="#000000" stroke-width="4" stroke-linecap="square" />
      </g>
    </g>
    <g id="Rectangle-116">
      <g clip-path="url(#clip_7)">
        <use xlink:href="#path_7" fill="none" stroke="#000000" stroke-width="2" stroke-linecap="square" />
      </g>
    </g>
    <g id="IN/OUT" fill="#041E90" transform="translate(8.577209 23.20001)">
      <path d="M1.73193 2.06714L1.73193 6.01489Q1.73193 6.32251 1.87378 6.47803Q2.01563 6.63354 2.23438 6.63354Q2.46338 6.63354 2.60522 6.47974Q2.74707 6.32593 2.74707 6.01489L2.74707 2.06714Q2.74707 1.7561 2.60522 1.604Q2.46338 1.4519 2.23438 1.4519Q2.01221 1.4519 1.87207 1.60571Q1.73193 1.75952 1.73193 2.06714ZM7.15625 5.01343L5.20459 2.0603Q5.12256 1.93042 5.04565 1.81079Q4.96875 1.69116 4.89526 1.61597Q4.82178 1.54077 4.72437 1.49634Q4.62695 1.4519 4.49023 1.4519Q4.31592 1.4519 4.16553 1.54932Q4.01514 1.64673 3.9502 1.80054Q3.89551 1.94067 3.89551 2.18677L3.89551 6.05249Q3.89551 6.33618 4.02539 6.48486Q4.15527 6.63354 4.37061 6.63354Q4.5791 6.63354 4.7124 6.48657Q4.8457 6.3396 4.8457 6.05249L4.8457 3.11646L6.74951 6.0354Q6.83154 6.15503 6.91357 6.26953Q6.9956 6.38403 7.09131 6.46948Q7.18701 6.55493 7.29639 6.59424Q7.40576 6.63354 7.54248 6.63354Q8.08936 6.63354 8.08936 5.97388L8.08936 2.03296Q8.08936 1.74243 7.96289 1.59717Q7.83643 1.4519 7.61768 1.4519Q7.40576 1.4519 7.28101 1.59717Q7.15625 1.74243 7.15625 2.03296L7.15625 5.01343ZM10.458 2.14575L9.50098 6.08667Q9.45313 6.28149 9.41724 6.39429Q9.38135 6.50708 9.30786 6.57031Q9.23438 6.63354 9.09424 6.63354Q8.74561 6.63354 8.74561 6.33276Q8.74561 6.25415 8.81396 5.9397L9.76758 1.99878Q9.84277 1.68433 9.91113 1.56812Q9.97949 1.4519 10.1777 1.4519Q10.3486 1.4519 10.4392 1.53394Q10.5298 1.61597 10.5298 1.75952Q10.5298 1.86548 10.458 2.14575ZM14.7083 1.76807Q14.1494 1.4519 13.3701 1.4519Q12.7959 1.4519 12.3447 1.63135Q11.8936 1.81079 11.5791 2.14917Q11.2646 2.48755 11.0989 2.96948Q10.9331 3.45142 10.9331 4.02905Q10.9331 4.59302 11.092 5.07837Q11.251 5.56372 11.562 5.90894Q11.873 6.25415 12.3379 6.44385Q12.8027 6.63354 13.3906 6.63354Q13.9819 6.63354 14.4399 6.44897Q14.8979 6.2644 15.2124 5.91577Q15.5269 5.56714 15.6841 5.09204Q15.8413 4.61694 15.8413 4.03589Q15.8413 3.24976 15.5542 2.66699Q15.2671 2.08423 14.7083 1.76807ZM16.7163 4.47681L16.7163 2.06714Q16.7163 1.75952 16.8547 1.60571Q16.9932 1.4519 17.2188 1.4519Q17.4546 1.4519 17.593 1.60571Q17.7314 1.75952 17.7314 2.06714L17.7314 4.53149Q17.7314 4.9519 17.8254 5.23389Q17.9194 5.51587 18.1587 5.67139Q18.3979 5.8269 18.8286 5.8269Q19.4233 5.8269 19.6694 5.51074Q19.9155 5.19458 19.9155 4.552L19.9155 2.06714Q19.9155 1.7561 20.0522 1.604Q20.189 1.4519 20.418 1.4519Q20.647 1.4519 20.7888 1.604Q20.9307 1.7561 20.9307 2.06714L20.9307 4.47681Q20.9307 5.0647 20.8162 5.45776Q20.7017 5.85083 20.3838 6.14819Q20.1104 6.40112 19.748 6.51733Q19.3857 6.63354 18.9004 6.63354Q18.3228 6.63354 17.9058 6.50879Q17.4888 6.38403 17.2256 6.12256Q16.9624 5.86108 16.8394 5.45264Q16.7163 5.04419 16.7163 4.47681ZM24.1743 2.37476L25.2817 2.37476Q25.5415 2.37476 25.6714 2.26025Q25.8013 2.14575 25.8013 1.95776Q25.8013 1.76978 25.6731 1.65356Q25.5449 1.53735 25.2817 1.53735L22.0552 1.53735Q21.8057 1.53735 21.6741 1.65015Q21.5425 1.76294 21.5425 1.95776Q21.5425 2.14575 21.6689 2.26025Q21.7954 2.37476 22.0552 2.37476L23.1626 2.37476L23.1626 6.01489Q23.1626 6.32593 23.3044 6.47974Q23.4463 6.63354 23.6719 6.63354Q23.894 6.63354 24.0342 6.48145Q24.1743 6.32935 24.1743 6.01489L24.1743 2.37476ZM14.6348 3.07544Q14.8125 3.47876 14.8125 4.02905Q14.8125 4.62378 14.6194 5.03052Q14.4263 5.43726 14.0999 5.63208Q13.7734 5.8269 13.3838 5.8269Q13.0796 5.8269 12.825 5.71411Q12.5703 5.60132 12.3738 5.37402Q12.1772 5.14673 12.0696 4.80151Q11.9619 4.4563 11.9619 4.02905Q11.9619 3.60522 12.0696 3.26514Q12.1772 2.92505 12.3635 2.7063Q12.5498 2.48755 12.8079 2.37305Q13.0659 2.25854 13.3701 2.25854Q13.7974 2.25855 14.1272 2.46533Q14.457 2.67212 14.6348 3.07544Z" />
    </g>
  </g>
</svg>