<?xml version="1.0" encoding="utf-8"?>
<svg width="44px" height="59px" viewBox="0 0 44 59" version="1.1" xmlns:xlink="http://www.w3.org/1999/xlink" xmlns="http://www.w3.org/2000/svg">
  <desc>Created with Lunacy</desc>
  <g id="Compose-Symbol-instance" transform="matrix(1 0 0 -1 0 59)">
    <path d="M0 1.999L0 57.001Q0 57.0992 0.00962573 57.1969Q0.0192515 57.2947 0.0384102 57.391Q0.057569 57.4873 0.0860763 57.5813Q0.114584 57.6753 0.152165 57.766Q0.189746 57.8567 0.236039 57.9433Q0.282333 58.0299 0.336892 58.1116Q0.391452 58.1932 0.453752 58.2691Q0.516052 58.3451 0.585494 58.4145Q0.654935 58.484 0.730848 58.5462Q0.806761 58.6086 0.888415 58.6631Q0.970069 58.7177 1.05668 58.764Q1.14329 58.8103 1.23402 58.8478Q1.32474 58.8854 1.41872 58.9139Q1.5127 58.9424 1.60901 58.9616Q1.70533 58.9808 1.80306 58.9904Q1.9008 59 1.999 59L42.001 59Q42.0992 59 42.1969 58.9904Q42.2947 58.9808 42.391 58.9616Q42.4873 58.9424 42.5813 58.9139Q42.6752 58.8854 42.766 58.8478Q42.8567 58.8103 42.9433 58.764Q43.0299 58.7177 43.1116 58.6631Q43.1932 58.6086 43.2692 58.5462Q43.3451 58.484 43.4145 58.4145Q43.4839 58.3451 43.5462 58.2691Q43.6085 58.1932 43.6631 58.1116Q43.7177 58.0299 43.764 57.9433Q43.8102 57.8567 43.8478 57.766Q43.8854 57.6753 43.9139 57.5813Q43.9424 57.4873 43.9616 57.391Q43.9807 57.2947 43.9904 57.1969Q44 57.0992 44 57.001L44 1.999Q44 1.9008 43.9904 1.80306Q43.9807 1.70533 43.9616 1.60901Q43.9424 1.5127 43.9139 1.41872Q43.8854 1.32474 43.8478 1.23402Q43.8102 1.14329 43.764 1.05668Q43.7177 0.970069 43.6631 0.888415Q43.6085 0.806761 43.5462 0.730848Q43.4839 0.654935 43.4145 0.585494Q43.3451 0.516052 43.2691 0.453752Q43.1932 0.391452 43.1116 0.336892Q43.0299 0.282333 42.9433 0.236039Q42.8567 0.189746 42.766 0.152165Q42.6752 0.114584 42.5813 0.0860763Q42.4873 0.057569 42.391 0.0384102Q42.2947 0.0192515 42.1969 0.00962573Q42.0992 0 42.001 0L1.999 0Q1.9008 0 1.80306 0.00962573Q1.70533 0.0192515 1.60901 0.0384102Q1.5127 0.057569 1.41872 0.0860763Q1.32474 0.114584 1.23402 0.152165Q1.14329 0.189746 1.05668 0.236039Q0.970069 0.282333 0.888415 0.336892Q0.806761 0.391452 0.730848 0.453752Q0.654935 0.516052 0.585494 0.585494Q0.516052 0.654935 0.453752 0.730848Q0.391452 0.806761 0.336892 0.888415Q0.282333 0.970069 0.236039 1.05668Q0.189746 1.14329 0.152165 1.23402Q0.114584 1.32474 0.0860763 1.41872Q0.057569 1.5127 0.0384102 1.60901Q0.0192515 1.70533 0.00962573 1.80306Q0 1.9008 0 1.999L0 1.999Z" id="Path" fill="none" stroke="none" />
  </g>
</svg>