<?xml version="1.0" encoding="utf-8"?>
<svg width="43px" height="60px" viewBox="0 0 43 60" version="1.1" xmlns:xlink="http://www.w3.org/1999/xlink" xmlns="http://www.w3.org/2000/svg">
  <desc>Created with Lunacy</desc>
  <g id="Contacts">
    <path d="M0.967246 2L21.0328 2C21.5667 2 22 1.56 22 1C22 0.45 21.5667 0 21.0328 0L0.967246 0C0.433326 0 0 0.45 0 1C0 1.56 0.433326 2 0.967246 2" transform="translate(6.422974 38.00003)" id="Fill-715" fill="#693C0B" stroke="none" />
    <path d="M0.967246 2L21.0328 2C21.5667 2 22 1.56 22 1C22 0.45 21.5667 0 21.0328 0L0.967246 0C0.433326 0 0 0.45 0 1C0 1.56 0.433326 2 0.967246 2" transform="translate(6.422852 45.00003)" id="Fill-721" fill="#693C0B" stroke="none" />
    <path d="M0.967246 2L21.0328 2C21.5667 2 22 1.55 22 1C22 0.45 21.5667 0 21.0328 0L0.967246 0C0.433326 0 0 0.45 0 1C0 1.55 0.433326 2 0.967246 2" transform="translate(6.422974 31.00003)" id="Fill-716" fill="#693C0B" stroke="none" />
    <path d="M0.967246 2L21.0328 2C21.5667 2 22 1.56 22 1C22 0.45 21.5667 0 21.0328 0L0.967246 0C0.433326 0 0 0.45 0 1C0 1.56 0.433326 2 0.967246 2" transform="translate(6.422974 24.00003)" id="Fill-717" fill="#693C0B" stroke="none" />
    <path d="M1.899 11.84C1.744 12.05 1.491 12.15 1.138 12.15C0.839 12.15 0.574 12.04 0.344 11.82C0.115 11.6 0 11.36 0 11.08C0 10.92 0.026 10.75 0.08 10.58C0.134 10.41 0.222 10.17 0.344 9.87L3.35 2.24C3.436 2.02 3.538 1.75 3.659 1.45C3.779 1.14 3.907 0.88 4.043 0.68C4.18 0.48 4.359 0.31 4.581 0.19C4.802 0.06 5.076 0 5.402 0C5.733 0 6.01 0.06 6.232 0.19C6.453 0.31 6.632 0.48 6.769 0.67C6.905 0.87 7.02 1.08 7.113 1.31C7.207 1.54 7.326 1.84 7.47 2.22L10.54 9.8Q10.9 10.67 10.9 11.06C10.9 11.33 10.787 11.58 10.56 11.81C10.333 12.04 10.059 12.15 9.738 12.15C9.551 12.15 9.391 12.12 9.257 12.05C9.124 11.98 9.011 11.89 8.921 11.78C8.83 11.66 8.732 11.49 8.628 11.25C8.524 11.01 8.434 10.8 8.36 10.62L7.798 9.15L3.022 9.15L2.46 10.65C2.241 11.24 2.055 11.64 1.899 11.84ZM7.15697 7.36001L5.38597 2.51001L3.64697 7.36001L7.15697 7.36001Z" transform="translate(7.422974 7.000031)" id="Fill-718" fill="#693C0B" fill-rule="evenodd" stroke="none" />
    <path d="M0.999 0L1.001 0Q1.09939 0 1.1959 0.0191955Q1.2924 0.038391 1.3833 0.0760443Q1.4742 0.113698 1.55601 0.168362Q1.63783 0.223026 1.7074 0.2926Q1.77697 0.362175 1.83164 0.443985Q1.8863 0.525796 1.92396 0.616699Q1.96161 0.707602 1.9808 0.804105Q2 0.900607 2 0.999L2 41.001Q2 41.0994 1.9808 41.1959Q1.96161 41.2924 1.92396 41.3833Q1.8863 41.4742 1.83164 41.556Q1.77697 41.6378 1.7074 41.7074Q1.63783 41.777 1.55601 41.8316Q1.4742 41.8863 1.3833 41.924Q1.2924 41.9616 1.1959 41.9808Q1.09939 42 1.001 42L0.999 42Q0.900607 42 0.804105 41.9808Q0.707602 41.9616 0.616699 41.924Q0.525796 41.8863 0.443985 41.8316Q0.362175 41.777 0.2926 41.7074Q0.223026 41.6378 0.168362 41.556Q0.113698 41.4742 0.0760443 41.3833Q0.038391 41.2924 0.0191955 41.1959Q0 41.0994 0 41.001L0 0.999Q0 0.900607 0.0191955 0.804105Q0.038391 0.707602 0.0760443 0.616699Q0.113698 0.525796 0.168362 0.443985Q0.223026 0.362175 0.2926 0.2926Q0.362175 0.223026 0.443985 0.168362Q0.525796 0.113698 0.616699 0.0760443Q0.707602 0.038391 0.804105 0.0191955Q0.900607 0 0.999 0Z" transform="translate(37 16)" id="Rectangle" fill="#000000" stroke="none" />
    <path d="M0.999 0L1.001 0Q1.09939 0 1.1959 0.0191955Q1.2924 0.038391 1.3833 0.0760443Q1.4742 0.113698 1.55601 0.168362Q1.63783 0.223026 1.7074 0.2926Q1.77697 0.362175 1.83164 0.443985Q1.8863 0.525796 1.92396 0.616699Q1.96161 0.707602 1.9808 0.804105Q2 0.900607 2 0.999L2 42.001Q2 42.0994 1.9808 42.1959Q1.96161 42.2924 1.92396 42.3833Q1.8863 42.4742 1.83164 42.556Q1.77697 42.6378 1.7074 42.7074Q1.63783 42.777 1.55601 42.8316Q1.4742 42.8863 1.3833 42.924Q1.2924 42.9616 1.1959 42.9808Q1.09939 43 1.001 43L0.999 43Q0.900607 43 0.804105 42.9808Q0.707602 42.9616 0.616699 42.924Q0.525796 42.8863 0.443985 42.8316Q0.362175 42.777 0.2926 42.7074Q0.223026 42.6378 0.168362 42.556Q0.113698 42.4742 0.0760443 42.3833Q0.038391 42.2924 0.0191955 42.1959Q0 42.0994 0 42.001L0 0.999Q0 0.900607 0.0191955 0.804105Q0.038391 0.707602 0.0760443 0.616699Q0.113698 0.525796 0.168362 0.443985Q0.223026 0.362175 0.2926 0.2926Q0.362175 0.223026 0.443985 0.168362Q0.525796 0.113698 0.616699 0.0760443Q0.707602 0.038391 0.804105 0.0191955Q0.900607 0 0.999 0Z" transform="translate(33.00012 16.00003)" id="Rectangle-7" fill="#000000" stroke="none" />
    <path d="M0.999 0L1.001 0Q1.09939 0 1.1959 0.0191955Q1.2924 0.038391 1.3833 0.0760443Q1.4742 0.113698 1.55601 0.168362Q1.63783 0.223026 1.7074 0.2926Q1.77697 0.362175 1.83164 0.443985Q1.8863 0.525796 1.92396 0.616699Q1.96161 0.707602 1.9808 0.804105Q2 0.900607 2 0.999L2 58.001Q2 58.0994 1.9808 58.1959Q1.96161 58.2924 1.92396 58.3833Q1.8863 58.4742 1.83164 58.556Q1.77697 58.6378 1.7074 58.7074Q1.63783 58.777 1.55601 58.8316Q1.4742 58.8863 1.3833 58.924Q1.2924 58.9616 1.1959 58.9808Q1.09939 59 1.001 59L0.999 59Q0.900607 59 0.804105 58.9808Q0.707602 58.9616 0.616699 58.924Q0.525796 58.8863 0.443985 58.8316Q0.362175 58.777 0.2926 58.7074Q0.223026 58.6378 0.168362 58.556Q0.113698 58.4742 0.0760443 58.3833Q0.038391 58.2924 0.0191955 58.1959Q0 58.0994 0 58.001L0 0.999Q0 0.900607 0.0191955 0.804105Q0.038391 0.707602 0.0760443 0.616699Q0.113698 0.525796 0.168362 0.443985Q0.223026 0.362175 0.2926 0.2926Q0.362175 0.223026 0.443985 0.168362Q0.525796 0.113698 0.616699 0.0760443Q0.707602 0.038391 0.804105 0.0191955Q0.900607 0 0.999 0Z" transform="translate(0.0001220703 3.051758E-05)" id="Rectangle-8" fill="#000000" stroke="none" />
    <path d="M0.999 0L1.001 0Q1.09939 0 1.1959 0.0191955Q1.2924 0.038391 1.3833 0.0760443Q1.4742 0.113698 1.55601 0.168362Q1.63783 0.223026 1.7074 0.2926Q1.77697 0.362175 1.83164 0.443985Q1.8863 0.525796 1.92396 0.616699Q1.96161 0.707602 1.9808 0.804105Q2 0.900607 2 0.999L2 41.001Q2 41.0994 1.9808 41.1959Q1.96161 41.2924 1.92396 41.3833Q1.8863 41.4742 1.83164 41.556Q1.77697 41.6378 1.7074 41.7074Q1.63783 41.777 1.55601 41.8316Q1.4742 41.8863 1.3833 41.924Q1.2924 41.9616 1.1959 41.9808Q1.09939 42 1.001 42L0.999 42Q0.900607 42 0.804105 41.9808Q0.707602 41.9616 0.616699 41.924Q0.525796 41.8863 0.443985 41.8316Q0.362175 41.777 0.2926 41.7074Q0.223026 41.6378 0.168362 41.556Q0.113698 41.4742 0.0760443 41.3833Q0.038391 41.2924 0.0191955 41.1959Q0 41.0994 0 41.001L0 0.999Q0 0.900607 0.0191955 0.804105Q0.038391 0.707602 0.0760443 0.616699Q0.113698 0.525796 0.168362 0.443985Q0.223026 0.362175 0.2926 0.2926Q0.362175 0.223026 0.443985 0.168362Q0.525796 0.113698 0.616699 0.0760443Q0.707602 0.038391 0.804105 0.0191955Q0.900607 0 0.999 0Z" transform="matrix(-4.371139E-08 1 -1 -4.371139E-08 42.00012 0)" id="Rectangle-9" fill="#000000" stroke="none" />
    <path d="M0.999 0L1.001 0Q1.09939 0 1.1959 0.0191955Q1.2924 0.038391 1.3833 0.0760443Q1.4742 0.113698 1.55601 0.168362Q1.63783 0.223026 1.7074 0.2926Q1.77697 0.362175 1.83164 0.443985Q1.8863 0.525796 1.92396 0.616699Q1.96161 0.707602 1.9808 0.804105Q2 0.900607 2 0.999L2 8.001Q2 8.09939 1.9808 8.1959Q1.96161 8.2924 1.92396 8.3833Q1.8863 8.4742 1.83164 8.55602Q1.77697 8.63783 1.7074 8.7074Q1.63783 8.77697 1.55601 8.83164Q1.4742 8.8863 1.3833 8.92395Q1.2924 8.96161 1.1959 8.9808Q1.09939 9 1.001 9L0.999 9Q0.900607 9 0.804105 8.9808Q0.707602 8.96161 0.616699 8.92395Q0.525796 8.8863 0.443985 8.83164Q0.362175 8.77697 0.2926 8.7074Q0.223026 8.63783 0.168362 8.55601Q0.113698 8.4742 0.0760443 8.3833Q0.038391 8.2924 0.0191955 8.1959Q0 8.09939 0 8.001L0 0.999Q0 0.900607 0.0191955 0.804105Q0.038391 0.707602 0.0760443 0.616699Q0.113698 0.525796 0.168362 0.443985Q0.223026 0.362175 0.2926 0.2926Q0.362175 0.223026 0.443985 0.168362Q0.525796 0.113698 0.616699 0.0760443Q0.707602 0.038391 0.804105 0.0191955Q0.900607 0 0.999 0Z" transform="matrix(-4.371139E-08 1 -1 -4.371139E-08 42.00012 16)" id="Rectangle-11" fill="#000000" stroke="none" />
    <path d="M0.999 0L1.001 0Q1.09939 0 1.1959 0.0191955Q1.2924 0.038391 1.3833 0.0760443Q1.4742 0.113698 1.55601 0.168362Q1.63783 0.223026 1.7074 0.2926Q1.77697 0.362175 1.83164 0.443985Q1.8863 0.525796 1.92396 0.616699Q1.96161 0.707602 1.9808 0.804105Q2 0.900607 2 0.999L2 17.001Q2 17.0994 1.9808 17.1959Q1.96161 17.2924 1.92396 17.3833Q1.8863 17.4742 1.83164 17.556Q1.77697 17.6378 1.7074 17.7074Q1.63783 17.777 1.55601 17.8316Q1.4742 17.8863 1.3833 17.924Q1.2924 17.9616 1.1959 17.9808Q1.09939 18 1.001 18L0.999 18Q0.900607 18 0.804105 17.9808Q0.707602 17.9616 0.616699 17.924Q0.525796 17.8863 0.443985 17.8316Q0.362175 17.777 0.2926 17.7074Q0.223026 17.6378 0.168362 17.556Q0.113698 17.4742 0.0760443 17.3833Q0.038391 17.2924 0.0191955 17.1959Q0 17.0994 0 17.001L0 0.999Q0 0.900607 0.0191955 0.804105Q0.038391 0.707602 0.0760443 0.616699Q0.113698 0.525796 0.168362 0.443985Q0.223026 0.362175 0.2926 0.2926Q0.362175 0.223026 0.443985 0.168362Q0.525796 0.113698 0.616699 0.0760443Q0.707602 0.038391 0.804105 0.0191955Q0.900607 0 0.999 0Z" transform="translate(40 3.051758E-05)" id="Rectangle-12" fill="#000000" stroke="none" />
    <path d="M0.999 0L1.001 0Q1.09939 0 1.1959 0.0191955Q1.2924 0.038391 1.3833 0.0760443Q1.4742 0.113698 1.55601 0.168362Q1.63783 0.223026 1.7074 0.2926Q1.77697 0.362175 1.83164 0.443985Q1.8863 0.525796 1.92396 0.616699Q1.96161 0.707602 1.9808 0.804105Q2 0.900607 2 0.999L2 34.001Q2 34.0994 1.9808 34.1959Q1.96161 34.2924 1.92396 34.3833Q1.8863 34.4742 1.83164 34.556Q1.77697 34.6378 1.7074 34.7074Q1.63783 34.777 1.55601 34.8316Q1.4742 34.8863 1.3833 34.924Q1.2924 34.9616 1.1959 34.9808Q1.09939 35 1.001 35L0.999 35Q0.900607 35 0.804105 34.9808Q0.707602 34.9616 0.616699 34.924Q0.525796 34.8863 0.443985 34.8316Q0.362175 34.777 0.2926 34.7074Q0.223026 34.6378 0.168362 34.556Q0.113698 34.4742 0.0760443 34.3833Q0.038391 34.2924 0.0191955 34.1959Q0 34.0994 0 34.001L0 0.999Q0 0.900607 0.0191955 0.804105Q0.038391 0.707602 0.0760443 0.616699Q0.113698 0.525796 0.168362 0.443985Q0.223026 0.362175 0.2926 0.2926Q0.362175 0.223026 0.443985 0.168362Q0.525796 0.113698 0.616699 0.0760443Q0.707602 0.038391 0.804105 0.0191955Q0.900607 0 0.999 0Z" transform="matrix(-4.371139E-08 1 -1 -4.371139E-08 35 57.00003)" id="Rectangle-10" fill="#000000" stroke="none" />
    <path d="M0 0L4 0L4 2L0 2L0 0Z" transform="translate(34.00012 56.00003)" id="Rectangle-2" fill="#000000" stroke="none" />
    <path d="M0 0L4 0L4 2L0 2L0 0Z" transform="translate(34.00012 20.99997)" id="Rectangle-3" fill="#000000" stroke="none" />
    <path d="M0 0L4 0L4 2L0 2L0 0Z" transform="translate(34.00024 28)" id="Rectangle-4" fill="#000000" stroke="none" />
    <path d="M0 0L4 0L4 2L0 2L0 0Z" transform="translate(34 35.00003)" id="Rectangle-5" fill="#000000" stroke="none" />
    <path d="M0 0L4 0L4 2L0 2L0 0Z" transform="translate(34 42.00003)" id="Rectangle-6" fill="#000000" stroke="none" />
    <path d="M0 0L4 0L4 2L0 2L0 0Z" transform="translate(34.00024 49.00003)" id="Rectangle-13" fill="#000000" stroke="none" />
  </g>
</svg>