<?xml version="1.0" encoding="utf-8"?>
<svg width="43px" height="59px" viewBox="0 0 43 59" version="1.1" xmlns:xlink="http://www.w3.org/1999/xlink" xmlns="http://www.w3.org/2000/svg">
  <desc>Created with Lunacy</desc>
  <g id="Contacts">
    <path d="M1 0L42 0C42.5524 0 43 0.536797 43 1.20408L43 15.6531C43 15.9846 42.5524 16.5214 42 16.8571L36 16.8571L36 57.7959C36.2876 58.4632 35.84 59 35 59L1 59C0.447625 59 0 58.4632 0 57.7959L0 1.20408C0 0.536797 0.447625 0 1 0ZM35 14.2222L41 14.2222L41 2L2 2L2 57L34 57L34 15.4444C34.2882 14.4615 34.7358 13.9171 35 14.2222Z" id="Fill-714" fill="#9CAFC3" fill-rule="evenodd" stroke="none" />
    <path d="M0.967246 2L21.0328 2C21.5667 2 22 1.56 22 1C22 0.45 21.5667 0 21.0328 0L0.967246 0C0.433326 0 0 0.45 0 1C0 1.56 0.433326 2 0.967246 2" transform="translate(7 38)" id="Fill-715" fill="#9CAFC3" stroke="none" />
    <path d="M0.967246 2L21.0328 2C21.5667 2 22 1.56 22 1C22 0.45 21.5667 0 21.0328 0L0.967246 0C0.433326 0 0 0.45 0 1C0 1.56 0.433326 2 0.967246 2" transform="translate(6.999878 45)" id="Fill-721" fill="#9CAFC3" stroke="none" />
    <path d="M0.967246 2L21.0328 2C21.5667 2 22 1.55 22 1C22 0.45 21.5667 0 21.0328 0L0.967246 0C0.433326 0 0 0.45 0 1C0 1.55 0.433326 2 0.967246 2" transform="translate(7 31)" id="Fill-716" fill="#9CAFC3" stroke="none" />
    <path d="M0.967246 2L21.0328 2C21.5667 2 22 1.56 22 1C22 0.45 21.5667 0 21.0328 0L0.967246 0C0.433326 0 0 0.45 0 1C0 1.56 0.433326 2 0.967246 2" transform="translate(7 24)" id="Fill-717" fill="#9CAFC3" stroke="none" />
    <path d="M1.899 11.84C1.744 12.05 1.491 12.15 1.138 12.15C0.839 12.15 0.574 12.04 0.344 11.82C0.115 11.6 0 11.36 0 11.08C0 10.92 0.026 10.75 0.08 10.58C0.134 10.41 0.222 10.17 0.344 9.87L3.35 2.24C3.436 2.02 3.538 1.75 3.659 1.45C3.779 1.14 3.907 0.88 4.043 0.68C4.18 0.48 4.359 0.31 4.581 0.19C4.802 0.06 5.076 0 5.402 0C5.733 0 6.01 0.06 6.232 0.19C6.453 0.31 6.632 0.48 6.769 0.67C6.905 0.87 7.02 1.08 7.113 1.31C7.207 1.54 7.326 1.84 7.47 2.22L10.54 9.8Q10.9 10.67 10.9 11.06C10.9 11.33 10.787 11.58 10.56 11.81C10.333 12.04 10.059 12.15 9.738 12.15C9.551 12.15 9.391 12.12 9.257 12.05C9.124 11.98 9.011 11.89 8.921 11.78C8.83 11.66 8.732 11.49 8.628 11.25C8.524 11.01 8.434 10.8 8.36 10.62L7.798 9.15L3.022 9.15L2.46 10.65C2.241 11.24 2.055 11.64 1.899 11.84ZM7.15697 7.36001L5.38597 2.51001L3.64697 7.36001L7.15697 7.36001Z" transform="translate(8 7)" id="Fill-718" fill="#9CAFC3" fill-rule="evenodd" stroke="none" />
    <path d="M4 0L1 0C0.462906 0 0 0.447248 0 1C0 1.54052 0.462906 1.98777 1 2L3 2L3 11L1 11C0.462906 11.0122 0 11.4495 0 12C0 12.5528 0.462906 13 1 13L4 13C4.53709 13 5 12.5528 5 12L5 1C5 0.447248 4.53709 0 4 0" transform="translate(38 21.99994)" id="Fill-719" fill="#9CAFC3" stroke="none" />
    <path d="M4 0L1 0C0.462906 0 0 0.454874 0 1C0 1.56679 0.462906 2.02166 1 2L3 2L3 12L1 12C0.462906 11.9783 0 12.4231 0 13C0 13.5451 0.462906 14 1 14L4 14C4.53709 14 5 13.5451 5 13L5 1C5 0.454874 4.53709 0 4 0" transform="translate(38 39.99997)" id="Fill-720" fill="#9CAFC3" stroke="none" />
  </g>
</svg>