<?xml version="1.0" encoding="utf-8"?>
<svg width="516px" height="516px" viewBox="0 0 516 516" version="1.1" xmlns:xlink="http://www.w3.org/1999/xlink" xmlns="http://www.w3.org/2000/svg">
  <desc>Created with Lunacy</desc>
  <defs>
    <path d="M0 0L512 0L512 512L0 512L0 0Z" id="path_1" />
    <clipPath id="mask_1">
      <use xlink:href="#path_1" />
    </clipPath>
  </defs>
  <g id="Export-Group" transform="translate(2 2)">
    <path d="M0 0L512 0L512 512L0 512L0 0Z" fill-opacity="0" />
    <g clip-path="url(#mask_1)">
      <g id="Mor-2" transform="translate(79.99997 104)">
        <path d="M0 6.16939L3.09912 27.8936L1.89657 60.4345L16.8438 63.726L31.3344 61.0753C31.3344 61.0753 39.0076 0.081603 39.8608 0.000762574C40.7139 -0.0800779 0 6.16939 0 6.16939Z" transform="translate(125.1676 395.1377)" id="New-shape-21" fill="#D8C4A3" stroke="#000000" stroke-width="4" />
        <path d="M34.0904 0L19.3695 44.9375L0 75.154C0 75.154 48.0364 96.0732 49.586 96.0732C51.1356 96.0732 96.8477 102.271 96.8477 102.271L124.74 103.821L152.632 101.497L178.974 94.5236L197.569 89.8749L182.074 44.1627L185.173 1.54957L134.818 6.80969L96.8477 9.29741L78.1435 6.98092L58.1086 6.19827L34.0904 0" transform="translate(65.85645 302.1645)" id="New-shape-20" fill="#1A3149" stroke="#000000" stroke-width="4" />
        <path d="M3.09912 1.97658L0 9.72455L3.09912 15.9229L24.0182 20.5716L55.5322 21.8136C60.8275 22.1364 64.7467 22.5045 65.0816 22.896C66.1841 24.1852 106.145 21.3464 106.145 21.3464L129.388 19.0221L139.46 3.52617L63.532 5.07577C63.532 5.07577 36.4147 4.3009 36.4147 1.20171C36.4147 -1.89748 3.09912 1.97658 3.09912 1.97658Z" transform="translate(96.07288 286.2419)" id="New-shape-18" fill="#051525" stroke="#000000" stroke-width="4" />
        <path d="M22.4687 15.4957L16.2704 60.4331L6.19826 92.974L0 119.317L7.74782 139.461L89.3924 138.437L145.659 119.317L139.461 82.127L125.515 35.64L72.8295 0L22.4687 15.4957Z" transform="translate(105.3703 30.99129)" id="New-shape-33" fill="#757575" stroke="#000000" stroke-width="2" />
        <path d="M67.9348 15.4957L58.6374 21.6939L32.5178 37.0701L7.52596 59.648L0 68.026L35.3939 96.0731L22.9974 108.47L35.3939 117.767C35.3939 117.767 29.1535 138.177 28.3998 139.594C27.646 141.01 27.1903 164.942 28.9677 166.147C30.7452 167.353 36.9434 170.452 36.9434 170.452L63.286 168.903L86.5294 173.551L142.314 173.551C142.314 173.551 145.413 173.551 146.962 173.551C148.512 173.551 190.35 100.722 190.35 100.722L190.35 92.974L205.846 77.4783L222.796 77.2559L229.089 82.127L235.288 74.3792L210.494 37.1896L177.954 10.847L153.161 0L141.005 7.3923L123.113 18.8942L102.025 32.5409L83.4303 48.0366L75.6825 32.5409L67.9348 15.4957Z" transform="translate(66.87732 117.7668)" id="New-shape-12" fill="#5B7EA1" stroke="#000000" stroke-width="4" />
        <path d="M1.4634 5.54025L12.0076 15.2295L33.0959 26.0586L55.7843 27.4192L83.6764 15.0227L119.011 0.403032L106.614 73.4215L95.4271 95.4933L49.9228 114.693L32.5408 115.744L11.8263 113.635L3.8139 107.739L0 97.1496L0 55.3113C0 55.3113 0 28.9688 0 27.4192C0 25.8696 3.04055 6.98952 3.04055 6.98952L10.188 0L14.7209 12.6133L1.4634 5.54025Z" transform="translate(213.8399 242.2048)" id="New-shape" fill="#221C0C" stroke="#000000" stroke-width="4" />
        <path d="M12.6003 66.9235L79.0277 35.257L64.2524 0L0 29.0586L12.6003 66.9235Z" transform="translate(0 90.25785)" id="New-shape-2" fill="#FFFFFF" stroke="#000000" stroke-width="4" />
        <path d="M0 24.7932L35.6398 27.8924L57.3336 0" transform="translate(4.648712 94.52328)" id="New-shape-3" fill="none" stroke="#000000" stroke-width="4" />
        <path d="M30.8876 14.405C30.8876 14.405 39.8178 18.5948 39.8178 20.1444C39.8178 21.694 35.1691 30.9914 35.1691 30.9914L30.5204 41.8383L53.7638 88.3254L45.6385 72.0746L73.9081 89.8749L44.4665 116.218L30.5204 110.019L15.0248 82.1271L8.82658 46.487L0 29.5379L19.6735 20.1444L8.8266 1.54957L15.0248 0L24.3222 7.74784L30.8876 14.405Z" transform="translate(25.26373 123.965)" id="New-shape-4" fill="#FFE6BE" stroke="#000000" stroke-width="4" />
        <path d="M20.9095 0C12.3736 26.7719 9.29736 39.6555 7.7478 41.2051C6.19824 42.7546 0 65.9982 0 65.9982L3.09912 70.6469L10.8469 69.0973L15.4956 65.9982L21.6938 44.3042L29.4416 28.8085L15.4956 25.7094L8.4936 44.2318L19.1635 44.2318L15.4953 44.2318L7.7478 65.9982" transform="translate(99.17209 164.8869)" id="New-shape-5" fill="none" stroke="#000000" stroke-width="2" />
        <path d="M41.838 3.09915L9.29733 0L1.54955 7.74787L4.17918 18.4286L0 32.5411L6.19822 44.9377L22.8996 43.4826L44.9371 44.9377C44.9371 44.9377 49.9274 36.6093 51.3061 36.1248C52.6849 35.6402 49.5858 17.0453 49.5858 17.0453L42.7376 1.10509L47.5807 18.3355L30.3505 19.5463L28.827 43.874L22.1545 41.6199L22.3408 20.1051L28.5809 19.0806L6.22819 19.0806" transform="translate(161.1547 192.1457)" id="New-shape-6" fill="none" stroke="#000000" stroke-width="2" />
        <path d="M4.21298 121.263L0 101.689C0 101.689 8.82325 56.24 8.84244 55.4358C8.86163 54.6316 13.9439 28.9082 13.9439 28.9082L15.0599 14.3429L28.2278 0L20.0656 37.5807L18.5351 55.7758L13.5103 94.9203L13.5103 121.263L4.21298 121.263Z" transform="translate(125.9505 165.4064)" id="New-shape-7" fill="none" stroke="#000000" stroke-width="2" />
        <path d="M21.6937 28.9459C21.6937 28.9459 9.29731 25.8468 7.74776 24.2972C6.19821 22.7476 12.3964 16.5493 12.3964 16.5493L6.19821 16.5493L1.54955 18.0989L0 8.80147C0 8.80147 7.55846 0.495969 6.87833 0" transform="translate(127.0642 135.3078)" id="New-shape-8" fill="none" stroke="#000000" stroke-width="2" />
        <path d="M0 44.9374L18.5948 44.9374L18.5948 35.64L26.3426 35.64L40.2886 40.2887L58.8834 21.6939L66.6312 0" transform="translate(154.9563 119.3163)" id="New-shape-9" fill="none" stroke="#000000" stroke-width="2" />
        <path d="M6.97303 67.4062L0 35.64L35.6399 29.4418L69.7303 9.2974L79.0277 0L116.217 6.19827L117.767 24.7931L127.064 29.4418L113.118 52.6853L75.9286 65.0818L41.8838 80.3015L24.1463 77.9365L6.97303 67.4062Z" transform="translate(223.1371 185.9475)" id="New-shape-14" fill="#FFFFFF" stroke="#000000" stroke-width="4" />
        <path d="M9.29734 117.767L9.29734 99.1722L9.29734 69.7305C9.29734 69.7305 9.29734 40.2887 9.29734 38.7391C9.29734 37.1896 12.3965 21.6939 12.3965 21.6939L18.0505 7.47006L26.3425 6.19826L27.892 0L21.6938 0L12.3965 0L6.19823 10.847L0 38.7392L0 69.7305L0 97.6227L0 116.217C0 116.217 0 120.866 0 122.416C0 123.965 3.09911 123.965 3.09911 123.965L9.29734 117.767Z" transform="translate(213.8399 120.8659)" id="New-shape-10" fill="#221C0C" stroke="#000000" stroke-width="4" />
        <path d="M0 30.9913L9.29736 75.9288L15.4956 75.9288L17.0452 49.5861L48.0364 7.74783L49.5859 3.09913L51.1355 0L82.1267 4.6487L77.478 55.7844L69.7302 55.7844L74.3789 7.74783L44.9373 4.6487L48.0364 60.4331L61.9824 55.7844L66.6311 12.3965L41.8381 10.847L40.5886 17.8024L58.8833 18.5948L54.8919 58.1479L86.7754 51.1357L100.721 27.8922L80.8649 18.5289L89.4119 22.5592L89.8745 4.6487L81.8464 7.73231" transform="translate(249.4798 187.497)" id="New-shape-15" fill="none" stroke="#000000" stroke-width="2" />
        <path d="M0 17.8055L12.3965 5.40898L29.5501 0L35.5018 26.1875L35.64 61.1934L32.781 75.5016L34.0904 96.8334L28.0196 118.864L17.0452 116.978L10.847 120.077L17.0452 90.6352L3.70275 102.029L0 93.7343L8.12398 74.3112L9.29739 59.6438L0 17.8055Z" transform="translate(260.3267 194.4846)" id="New-shape-11" fill="#FFE6BE" stroke="#000000" stroke-width="4" />
        <path d="M24.793 37.0668L0.659018 0L0 6.07519" transform="translate(232.4345 176.7732)" id="New-shape-13" fill="none" stroke="#000000" stroke-width="2" />
        <path d="M9.29738 0L0 21.6939C0 21.6939 17.0452 38.7392 18.5948 40.2888C20.1443 41.8383 9.29738 0 9.29738 0Z" transform="translate(238.4812 221.5875)" id="New-shape-16" fill="none" stroke="#000000" stroke-width="2" />
        <path d="M3.09906 0L0 12.3966L7.74765 27.8924" transform="translate(258.7771 226.2361)" id="New-shape-17" fill="none" stroke="#000000" stroke-width="2" />
        <path d="M26.3425 3.09918C24.7929 3.09918 10.8469 0 10.8469 0L1.54956 3.09918L0 17.0455L12.3965 21.6942L23.2434 21.6942L30.9912 17.0455L30.9912 6.19836C30.9912 6.19836 27.8921 3.09918 26.3425 3.09918Z" transform="translate(120.866 288.2186)" id="New-shape-19" fill="#A1A1A1" stroke="#000000" stroke-width="2" />
        <path d="M66.4206 26.343L60.9662 0.280711L43.1182 2.13626L26.1321 0L11.9282 5.84732L0 16.4503L4.77126 21.1333L25.8886 22.8121L41.7044 22.6354L50.9819 14.3298L54.6046 24.3143L66.4206 26.343Z" transform="translate(97.83298 458.6704)" id="New-shape-22" fill="#191919" stroke="#000000" stroke-width="4" />
        <path d="M1.54956 0L32.5408 0L37.1895 0L44.1604 15.0418L38.739 24.7931C38.739 24.7931 30.9912 24.7931 29.4417 24.7931C27.8921 24.7931 15.4956 20.1444 13.9461 20.1444C12.3965 20.1444 7.74781 12.3966 7.74781 12.3966L11.363 17.7698L3.25821 18.1881L0 15.4957L1.54956 0Z" transform="translate(201.4433 467.968)" id="New-shape-24" fill="#191919" stroke="#000000" stroke-width="4" />
        <path d="M3.49246 68.956L14.3393 68.956L32.159 65.8569C32.159 65.8569 37.5824 34.8654 36.0329 34.8654C34.4833 34.8654 37.5824 0 37.5824 0C37.5824 0 1.49026 8.11039 0.167038 7.54174C-1.15619 6.97308 5.81675 41.8385 5.81675 41.8385L3.49246 68.956Z" transform="translate(199.5004 399.0123)" id="New-shape-23" fill="#D8C4A3" stroke="#000000" stroke-width="4" />
        <path d="M9.83282 17.82L12.9319 31.7661C12.9319 31.7661 6.08537 45.8613 4.85997 47.3363C3.63457 48.8113 1.23777 66.5254 0.111825 67.7405C-1.01412 68.9557 6.73369 89.1 6.73369 89.1L14.4815 103.046L30.2689 125.103L43.9232 126.29L73.3649 107.695L102.807 86.0009L104.356 75.1539C104.356 75.1539 107.455 72.0548 109.005 72.0548C110.554 72.0548 110.554 61.2078 110.554 61.2078C110.554 61.2078 116.249 50.4715 117.275 50.4162C118.302 50.3609 112.104 44.1626 112.104 44.1626L103.801 46.1814L112.877 44.9475L112.104 36.4148L95.0587 24.0183C95.0587 24.0183 72.1551 15.7875 70.4356 15.2542C68.7162 14.7209 53.9953 0 53.9953 0L22.2293 11.6217L9.83282 17.82Z" transform="translate(114.6677 29.44169)" id="New-shape-25" fill="#FFE6BE" stroke="#000000" stroke-width="4" />
        <path d="M8.16207 0L1.54955 3.09919L0 11.4989C0 11.4989 0.122666 18.9194 0.836106 19.858C1.54955 20.7965 9.29728 20.7965 9.29728 20.7965C9.29728 20.7965 11.4466 16.2492 11.9215 15.4237C12.3964 14.5981 12.9676 7.33799 12.3964 6.85013C11.8251 6.36227 8.16207 0 8.16207 0Z" transform="translate(133.2625 55.1325)" id="New-shape-26" fill="#FFFFFF" stroke="#000000" stroke-width="2" />
        <path d="M4.35449 21.045L0.209488 16.2251L0 7.74797L4.64865 0L11.6216 0C11.6216 0 11.9213 2.93079 12.9336 3.78979C13.946 4.64879 13.946 9.29757 13.946 9.29757L10.8469 18.5951C10.8469 18.5951 6.27174 20.3071 4.64865 20.9195C3.02556 21.532 4.35449 21.045 4.35449 21.045Z" transform="translate(165.8034 56.25)" id="New-shape-27" fill="#FFFFFF" stroke="#000000" stroke-width="2" />
        <path d="M4.73031 0L0 5.00163L0 9.65038L1.54953 12.7495L7.74766 12.7495L10.9959 10.7001" transform="translate(145.6591 74.02612)" id="New-shape-28" fill="none" stroke="#000000" stroke-width="2" />
        <path d="M0 7.94648L12.3965 15.6943L30.6296 14.7486L44.9374 4.84735L47.8845 0" transform="translate(131.7128 123.7663)" id="New-shape-30" fill="none" stroke="#000000" stroke-width="2" />
        <path d="M3.09859 2.32391L0 13.169C0 13.169 3.09905 19.3661 3.09911 20.9155C3.09907 22.4649 9.2968 25.5634 9.2968 25.5634L17.0441 28.6621L23.2418 28.6622L30.989 25.5639L35.6369 17.8176L37.1865 13.9444L37.1863 6.97242L34.862 6.97237L30.9885 6.97243L27.1149 6.9723L18.593 5.4228L11.9349 2.72305L6.97225 0.774696L3.87343 0L3.09859 2.32391Z" transform="matrix(0.9816272 -0.190809 0.190809 0.9816272 129.3831 94.25871)" id="New-shape-31" fill="#131313" stroke="#000000" stroke-width="2" />
        <path d="M130.938 104.759L137.911 115.606L139.804 116.153L137.593 103.034L135.587 75.3173L127.864 52.3278L113.124 14.7402L87.3286 0L55.7846 3.39024L29.4417 16.4338L17.1653 38.0298L17.1653 44.3681L9.79525 62.0563L2.86736 86.0829L2.32434 107.858L0 143.498L4.64868 141.174L10.8469 107.858L7.74781 90.8129L12.3965 70.6686L18.5947 57.4973L19.3695 43.5512L44.9373 45.1008L56.2205 38.5842L63.8841 30.1955L68.1807 40.4521L75.9285 49.7495L87.4965 58.8826L102.824 64.5785L113.893 67.5695L121.641 66.7947L128.614 76.0921L130.938 104.759Z" transform="translate(105.3703 4.485245)" id="New-shape-32" fill="#B9B9B9" stroke="#000000" stroke-width="2" />
        <path d="M0.911237 5.92303L10.4792 0L16.4023 0L13.2129 3.64494L10.4792 11.8461L13.2129 3.64494L16.4023 0L27.7927 1.36685L28.2483 4.10056L23.8818 9.20249L16.1339 12.3017L6.83657 12.3017L0 9.11235L0.911237 5.92303Z" transform="translate(137.5967 105.2478)" id="New-shape-34" fill="#900C0C" stroke="#000000" stroke-width="2" />
        <path d="M0 0L0 3.09943L0 1.54971" transform="translate(139.4607 66.63116)" id="New-shape-35" fill="none" stroke="#000000" stroke-width="2" />
        <path d="M0 0L0 3.09943L0 3.09943L0 1.70837L0 1.62517" transform="translate(172.0016 66.63116)" id="New-shape-36" fill="none" stroke="#000000" stroke-width="2" />
        <path d="M1.01581 19.3977L17.0452 27.1174L32.5408 28.667L57.3339 28.667L79.0278 24.0183L103.821 19.3696L72.8295 19.3696L58.8834 19.3696L44.9374 13.1713L32.5409 0L12.3965 5.42349L0 13.1713L1.01581 19.3977Z" transform="translate(85.22601 27.11734)" id="New-shape-37" fill="#0E2858" stroke="#000000" stroke-width="4" />
        <path d="M0 26.3427L20.1443 10.847L51.1355 0L82.1267 0L105.37 20.1444L117.767 46.487C117.767 46.487 117.767 61.9827 117.767 63.5323C117.767 65.0819 85.2258 54.2349 85.2258 54.2349L63.532 46.487L24.793 46.487L12.3965 40.2888L0 26.3427Z" transform="translate(117.7668 0)" id="New-shape-38" fill="#123F90" stroke="#000000" stroke-width="4" />
        <path d="M0 51.4845L15.4677 20.1445L22.4407 0L15.4677 27.8923L5.39564 55.0098L0 51.4845Z" transform="translate(86.80338 333.1559)" id="New-shape-39" fill="#000000" stroke="#000000" stroke-width="2" />
        <path d="M3.09911 50.061L0 18.5947L0 0C0 0 3.09911 20.1443 3.09911 24.793C3.09911 29.4417 3.09911 50.061 3.09911 50.061" transform="translate(192.1459 353.3005)" id="New-shape-40" fill="none" stroke="#000000" stroke-width="2" />
        <path d="M0 0L5.19388 6.23567L16.2704 12.3967L28.6669 12.3967L36.4147 9.29753L37.9643 1.54959L31.766 7.74794L24.2021 9.26075L24.0182 9.29753L17.82 9.29753L5.18096 6.21743L0 0Z" transform="translate(129.3886 108.4694)" id="New-shape-41" fill="#F9B3B6" stroke="#F9B3B6" stroke-width="1" />
        <path d="M5.42346 0.774857L12.3965 0L24.0182 0.774857L36.4147 2.32457L29.4416 3.87428L15.4956 3.09943L0 1.54971L5.42346 0.774857Z" transform="translate(131.7128 90.6494)" id="New-shape-42" fill="#F9B3B6" stroke="#F9B3B6" stroke-width="1" />
      </g>
    </g>
  </g>
</svg>