<?xml version="1.0" encoding="utf-8"?>
<svg width="516px" height="516px" viewBox="0 0 516 516" version="1.1" xmlns:xlink="http://www.w3.org/1999/xlink" xmlns="http://www.w3.org/2000/svg">
  <desc>Created with Lunacy</desc>
  <defs>
    <path d="M0 0L512 0L512 512L0 512L0 0Z" id="path_1" />
    <clipPath id="mask_1">
      <use xlink:href="#path_1" />
    </clipPath>
  </defs>
  <g id="Export-Group" transform="translate(2 2)">
    <path d="M0 0L512 0L512 512L0 512L0 0Z" fill-opacity="0" />
    <g clip-path="url(#mask_1)">
      <g id="Mor-2" transform="translate(64.00003 80)">
        <path d="M0 6.77036L3.40101 30.6108L2.08131 66.3215L18.4846 69.9337L34.3867 67.0247C34.3867 67.0247 42.8073 0.0895521 43.7436 0.000836858C44.6799 -0.0878785 0 6.77036 0 6.77036Z" transform="translate(137.3602 433.6281)" id="New-shape-21" fill="#D8C4A3" stroke="#000000" stroke-width="4" />
        <path d="M37.4112 0L21.2563 49.3149L0 82.4749C0 82.4749 52.7157 105.432 54.4162 105.432C56.1167 105.432 106.282 112.234 106.282 112.234L136.891 113.934L167.5 111.384L196.409 103.731L216.815 98.6297L199.81 48.4646L203.211 1.70051L147.951 7.47303L106.282 10.2031L85.7555 7.66093L63.769 6.80205L37.4112 0" transform="translate(72.27155 331.5984)" id="New-shape-20" fill="#1A3149" stroke="#000000" stroke-width="4" />
        <path d="M3.40101 2.16912L0 10.6718L3.40101 17.4739L26.3578 22.5756L60.9416 23.9385C66.7528 24.2927 71.0537 24.6967 71.4212 25.1264C72.6311 26.5411 116.485 23.4258 116.485 23.4258L141.992 20.8751L153.045 3.86966L69.7207 5.57021C69.7207 5.57021 39.9619 4.71986 39.9619 1.31878C39.9619 -2.08231 3.40101 2.16912 3.40101 2.16912Z" transform="translate(105.4313 314.1248)" id="New-shape-18" fill="#051525" stroke="#000000" stroke-width="4" />
        <path d="M24.6573 17.0051L17.8553 66.3199L6.80203 102.031L0 130.939L8.50253 153.046L98.1 151.922L159.848 130.939L153.046 90.127L137.741 39.1117L79.9238 0L24.6573 17.0051Z" transform="translate(115.6344 34.01015)" id="New-shape-33" fill="#757575" stroke="#000000" stroke-width="2" />
        <path d="M74.5523 17.0051L64.3493 23.8071L35.6854 40.6811L8.25907 65.4583L0 74.6523L38.8416 105.432L25.2375 119.036L38.8416 129.239C38.8416 129.239 31.9933 151.636 31.1662 153.191C30.3391 154.746 29.8389 181.009 31.7895 182.332C33.7401 183.655 40.5421 187.056 40.5421 187.056L69.4507 185.355L94.9583 190.457L156.177 190.457C156.177 190.457 159.578 190.457 161.278 190.457C162.979 190.457 208.892 110.533 208.892 110.533L208.892 102.031L225.897 85.0254L244.499 84.7814L251.405 90.1269L258.207 81.6244L230.999 40.8122L195.288 11.9036L168.08 0L154.74 8.11238L135.106 20.7347L111.963 35.7107L91.5573 52.7158L83.0548 35.7107L74.5523 17.0051Z" transform="translate(73.39185 129.2384)" id="New-shape-12" fill="#5B7EA1" stroke="#000000" stroke-width="4" />
        <path d="M1.60595 6.07993L13.1772 16.713L36.3197 28.597L61.2182 30.0901L91.8272 16.4861L130.603 0.442291L116.999 80.5734L104.723 104.795L54.7858 125.865L35.7106 127.019L12.9783 124.704L4.18541 118.233L0 106.613L0 60.6992C0 60.6992 0 31.7906 0 30.0901C0 28.3896 3.33672 7.67037 3.33672 7.67037L11.1804 0L16.1548 13.8419L1.60595 6.07993Z" transform="translate(234.6701 265.798)" id="New-shape" fill="#221C0C" stroke="#000000" stroke-width="4" />
        <path d="M13.8277 73.4425L86.7257 38.6913L70.5112 0L0 31.8892L13.8277 73.4425Z" transform="translate(0 99.04989)" id="New-shape-2" fill="#FFFFFF" stroke="#000000" stroke-width="4" />
        <path d="M0 27.2083L39.1115 30.6094L62.9185 0" transform="translate(5.101532 103.7308)" id="New-shape-3" fill="none" stroke="#000000" stroke-width="4" />
        <path d="M33.8964 15.8082C33.8964 15.8082 43.6965 20.4061 43.6965 22.1067C43.6965 23.8072 38.595 34.0102 38.595 34.0102L33.4934 45.9138L59.001 96.9292L50.0842 79.0955L81.1076 98.6297L48.798 127.538L33.4934 120.736L16.4884 90.1272L9.68638 51.0154L0 32.4152L21.5899 22.1067L9.68641 1.70051L16.4884 0L26.6914 8.50256L33.8964 15.8082Z" transform="translate(27.72467 136.0404)" id="New-shape-4" fill="#FFE6BE" stroke="#000000" stroke-width="4" />
        <path d="M22.9463 0C13.5789 29.3798 10.203 43.5184 8.50251 45.2189C6.80201 46.9194 0 72.4272 0 72.4272L3.40101 77.5287L11.9035 75.8282L17.005 72.4272L23.807 48.6199L32.3095 31.6148L17.005 28.2138L9.32096 48.5405L21.0302 48.5405L17.0047 48.5405L8.50251 72.4272" transform="translate(108.8325 180.9485)" id="New-shape-5" fill="none" stroke="#000000" stroke-width="2" />
        <path d="M45.9135 3.40104L10.203 0L1.7005 8.50261L4.58628 20.2238L0 35.711L6.802 49.3151L25.1303 47.7184L49.3145 49.3151C49.3145 49.3151 54.7909 40.1755 56.304 39.6438C57.817 39.112 54.416 18.7057 54.416 18.7057L46.9008 1.21274L52.2156 20.1216L33.307 21.4503L31.6351 48.1478L24.3126 45.6742L24.517 22.0636L31.365 20.9393L6.83489 20.9393" transform="translate(176.8528 210.8627)" id="New-shape-6" fill="none" stroke="#000000" stroke-width="2" />
        <path d="M4.62336 133.075L0 111.594C0 111.594 9.68272 61.7183 9.70378 60.8358C9.72484 59.9532 15.3021 31.7241 15.3021 31.7241L16.5268 15.74L30.9775 0L22.0202 41.2414L20.3406 61.2089L14.8263 104.166L14.8263 133.075L4.62336 133.075Z" transform="translate(138.2193 181.5187)" id="New-shape-7" fill="none" stroke="#000000" stroke-width="2" />
        <path d="M23.8069 31.7656C23.8069 31.7656 10.203 28.3646 8.50248 26.664C6.80198 24.9635 13.604 18.1614 13.604 18.1614L6.80198 18.1614L1.70049 19.862L0 9.65884C0 9.65884 8.29474 0.544282 7.54836 0" transform="translate(139.4416 148.4882)" id="New-shape-8" fill="none" stroke="#000000" stroke-width="2" />
        <path d="M0 49.3148L20.4061 49.3148L20.4061 39.1118L28.9086 39.1118L44.2132 44.2133L64.6192 23.8072L73.1218 0" transform="translate(170.0507 130.939)" id="New-shape-9" fill="none" stroke="#000000" stroke-width="2" />
        <path d="M7.65227 73.9722L0 39.1117L39.1116 32.3097L76.5228 10.2031L86.7258 0L127.538 6.80204L129.238 27.2082L139.441 32.3097L124.137 57.8174L83.3248 71.4214L45.9637 88.1237L26.4984 85.5283L7.65227 73.9722Z" transform="translate(244.873 204.0607)" id="New-shape-14" fill="#FFFFFF" stroke="#000000" stroke-width="4" />
        <path d="M10.203 129.239L10.203 108.833L10.203 76.5229C10.203 76.5229 10.203 44.2133 10.203 42.5127C10.203 40.8122 13.604 23.8071 13.604 23.8071L19.8088 8.19772L28.9085 6.80204L30.609 0L23.807 0L13.604 0L6.80201 11.9036L0 42.5128L0 76.523L0 107.132L0 127.538C0 127.538 0 132.64 0 134.34C0 136.041 3.401 136.041 3.401 136.041L10.203 129.239Z" transform="translate(234.6701 132.6395)" id="New-shape-10" fill="#221C0C" stroke="#000000" stroke-width="4" />
        <path d="M0 34.0102L10.203 83.3251L17.005 83.3251L18.7056 54.4164L52.7156 8.50256L54.4161 3.40102L56.1166 0L90.1267 5.10153L85.0252 61.2184L76.5227 61.2184L81.6242 8.50256L49.3146 5.10153L52.7156 66.3199L68.0202 61.2184L73.1217 13.6041L45.9136 11.9036L44.5423 19.5366L64.6192 20.4061L60.239 63.8121L95.2283 56.1169L110.533 30.6092L88.742 20.3338L98.1216 24.7567L98.6293 5.10153L89.8191 8.48552" transform="translate(273.7816 205.7612)" id="New-shape-15" fill="none" stroke="#000000" stroke-width="2" />
        <path d="M0 19.54L13.6041 5.93587L32.4285 0L38.96 28.7384L39.1117 67.1543L35.9742 82.8562L37.4112 106.266L30.749 130.443L18.7056 128.373L11.9036 131.774L18.7056 99.464L4.06343 111.968L0 102.865L8.91534 81.5499L10.203 65.4538L0 19.54Z" transform="translate(285.6851 213.4294)" id="New-shape-11" fill="#FFE6BE" stroke="#000000" stroke-width="4" />
        <path d="M27.2081 40.6775L0.723212 0L0 6.66697" transform="translate(255.076 193.9927)" id="New-shape-13" fill="none" stroke="#000000" stroke-width="2" />
        <path d="M10.203 0L0 23.8072C0 23.8072 18.7056 42.5128 20.4061 44.2133C22.1066 45.9138 10.203 0 10.203 0Z" transform="translate(261.7117 243.1724)" id="New-shape-16" fill="none" stroke="#000000" stroke-width="2" />
        <path d="M3.40099 0L0 13.6042L8.50247 30.6094" transform="translate(283.9846 248.2738)" id="New-shape-17" fill="none" stroke="#000000" stroke-width="2" />
        <path d="M28.9085 3.40108C27.208 3.40108 11.9035 0 11.9035 0L1.7005 3.40108L0 18.7059L13.604 23.8075L25.5075 23.8075L34.01 18.7059L34.01 6.80215C34.01 6.80215 30.609 3.40108 28.9085 3.40108Z" transform="translate(132.6395 316.294)" id="New-shape-19" fill="#A1A1A1" stroke="#000000" stroke-width="2" />
        <path d="M72.8906 28.909L66.905 0.308055L47.3183 2.34435L28.6776 0L13.0901 6.4169L0 18.0528L5.23603 23.1919L28.4104 25.0343L45.7669 24.8403L55.9481 15.7256L59.9236 26.6827L72.8906 28.909Z" transform="translate(107.3629 503.3497)" id="New-shape-22" fill="#191919" stroke="#000000" stroke-width="4" />
        <path d="M1.7005 0L35.7106 0L40.8121 0L48.462 16.507L42.5126 27.2083C42.5126 27.2083 34.0101 27.2083 32.3095 27.2083C30.609 27.2083 17.005 22.1068 15.3045 22.1068C13.604 22.1068 8.50251 13.6042 8.50251 13.6042L12.4699 19.5008L3.57559 19.9599L0 17.0052L1.7005 0Z" transform="translate(221.066 513.5528)" id="New-shape-24" fill="#191919" stroke="#000000" stroke-width="4" />
        <path d="M3.83267 75.6729L15.7361 75.6729L35.2917 72.2719C35.2917 72.2719 41.2435 38.2616 39.543 38.2616C37.8425 38.2616 41.2434 0 41.2434 0C41.2434 0 1.63543 8.90041 0.183309 8.27637C-1.26881 7.65232 6.38338 45.9139 6.38338 45.9139L3.83267 75.6729Z" transform="translate(218.9338 437.8802)" id="New-shape-23" fill="#D8C4A3" stroke="#000000" stroke-width="4" />
        <path d="M10.7906 19.5559L14.1917 34.8605C14.1917 34.8605 6.67815 50.3287 5.33338 51.9474C3.98862 53.5661 1.35834 73.0057 0.122717 74.3392C-1.11291 75.6727 7.38962 97.7794 7.38962 97.7794L15.8922 113.084L33.2174 137.29L48.2018 138.592L80.5114 118.185L112.821 94.3783L114.521 82.4748C114.521 82.4748 117.922 79.0738 119.623 79.0738C121.323 79.0738 121.323 67.1702 121.323 67.1702C121.323 67.1702 127.572 55.388 128.699 55.3273C129.826 55.2666 123.024 48.4646 123.024 48.4646L113.912 50.6799L123.872 49.3259L123.024 39.962L104.318 26.3579C104.318 26.3579 79.1838 17.3254 77.2968 16.7401C75.4098 16.1549 59.255 0 59.255 0L24.3947 12.7538L10.7906 19.5559Z" transform="translate(125.8375 32.30961)" id="New-shape-25" fill="#FFE6BE" stroke="#000000" stroke-width="4" />
        <path d="M8.95715 0L1.70049 3.40109L0 12.619C0 12.619 0.134615 20.7624 0.917552 21.7924C1.70049 22.8223 10.2029 22.8223 10.2029 22.8223C10.2029 22.8223 12.5617 17.8321 13.0828 16.9261C13.6039 16.0201 14.2308 8.05279 13.6039 7.51741C12.977 6.98203 8.95715 0 8.95715 0Z" transform="translate(146.2437 60.50296)" id="New-shape-26" fill="#FFFFFF" stroke="#000000" stroke-width="2" />
        <path d="M4.77867 23.095L0.229895 17.8056L0 8.50271L5.10149 0L12.7537 0C12.7537 0 13.0826 3.21628 14.1935 4.15895C15.3045 5.10162 15.3045 10.2032 15.3045 10.2032L11.9035 20.4065C11.9035 20.4065 6.88268 22.2852 5.10149 22.9573C3.32029 23.6294 4.77867 23.095 4.77867 23.095Z" transform="translate(181.9543 61.72932)" id="New-shape-27" fill="#FFFFFF" stroke="#000000" stroke-width="2" />
        <path d="M5.19111 0L0 5.48888L0 10.5905L1.70048 13.9916L8.5024 13.9916L12.0671 11.7424" transform="translate(159.8477 81.23701)" id="New-shape-28" fill="none" stroke="#000000" stroke-width="2" />
        <path d="M0 8.7206L13.6041 17.2232L33.6132 16.1853L49.3147 5.31957L52.5489 0" transform="translate(144.543 135.8224)" id="New-shape-30" fill="none" stroke="#000000" stroke-width="2" />
        <path d="M3.40092 2.55069L0 14.4539C0 14.4539 3.40138 21.2557 3.40143 22.9562C3.40137 24.6567 10.2039 28.0576 10.2039 28.0576L18.7069 31.4587L25.5094 31.4588L34.0126 28.0582L39.1139 19.556L40.8146 15.3049L40.8144 7.65279L38.2634 7.65273L34.0119 7.65269L29.7604 7.65262L20.4071 5.95195L13.0993 2.98874L7.65253 0.850311L4.2513 0L3.40092 2.55069Z" transform="matrix(0.9816272 -0.190809 0.190809 0.9816272 142.0066 103.4552)" id="New-shape-31" fill="#131313" stroke="#000000" stroke-width="2" />
        <path d="M143.693 114.964L151.345 126.867L153.422 127.467L150.996 113.071L148.794 82.654L140.319 57.425L124.143 16.1761L95.8353 0L61.2186 3.72049L32.3096 18.0346L18.8374 41.7343L18.8374 48.69L10.7494 68.1013L3.14667 94.4682L2.55076 118.365L0 157.476L5.10151 154.926L11.9035 118.365L8.50252 99.6591L13.604 77.5524L20.406 63.0981L21.2563 47.7935L49.3146 49.4941L61.697 42.3427L70.1071 33.1369L74.8222 44.3926L83.3247 54.5956L96.0195 64.6184L112.84 70.8692L124.987 74.1514L133.49 73.3012L141.142 83.5042L143.693 114.964Z" transform="translate(115.6344 4.92215)" id="New-shape-32" fill="#B9B9B9" stroke="#000000" stroke-width="2" />
        <path d="M1 6.5L11.5 0L18 0L14.5 4L11.5 13L14.5 4L18 0L30.5 1.5L31 4.5L26.2081 10.0989L17.7056 13.5L7.50252 13.5L0 10L1 6.5Z" transform="translate(151 115.5)" id="New-shape-34" fill="#900C0C" stroke="#000000" stroke-width="2" />
        <path d="M0 0L0 3.40141L0 1.70071" transform="translate(153.0456 73.12172)" id="New-shape-35" fill="none" stroke="#000000" stroke-width="2" />
        <path d="M0 0L0 3.40141L0 3.40141L0 1.87482L0 1.78351" transform="translate(188.7563 73.12172)" id="New-shape-36" fill="none" stroke="#000000" stroke-width="2" />
        <path d="M1.11476 21.2873L18.7056 29.759L35.7107 31.4595L62.9188 31.4595L86.7259 26.358L113.934 21.2564L79.9239 21.2564L64.6193 21.2564L49.3147 14.4544L35.7107 0L13.6041 5.9518L0 14.4544L1.11476 21.2873Z" transform="translate(93.52789 29.75885)" id="New-shape-37" fill="#0E2858" stroke="#000000" stroke-width="4" />
        <path d="M0 28.9087L22.1066 11.9036L56.1166 0L90.1267 0L115.634 22.1066L129.238 51.0153C129.238 51.0153 129.238 68.0204 129.238 69.7209C129.238 71.4214 93.5277 59.5179 93.5277 59.5179L69.7207 51.0153L27.2081 51.0153L13.604 44.2133L0 28.9087Z" transform="translate(129.2385 0)" id="New-shape-38" fill="#123F90" stroke="#000000" stroke-width="4" />
        <path d="M0 56.4996L16.9745 22.1068L24.6267 0L16.9745 30.6093L5.92124 60.3683L0 56.4996Z" transform="translate(95.25891 365.6086)" id="New-shape-39" fill="#000000" stroke="#000000" stroke-width="2" />
        <path d="M3.40097 54.9375L0 20.4061L0 0C0 0 3.40097 22.1066 3.40097 27.2081C3.40097 32.3096 3.40097 54.9375 3.40097 54.9375" transform="translate(210.8629 387.7155)" id="New-shape-40" fill="none" stroke="#000000" stroke-width="2" />
        <path d="M0 0L5.69982 6.84309L17.8553 13.6043L31.4594 13.6043L39.9619 10.2032L41.6624 1.70054L34.8604 8.50268L26.5597 10.1628L26.3579 10.2032L19.5558 10.2032L5.68564 6.82308L0 0Z" transform="translate(141.9923 119.0354)" id="New-shape-41" fill="#F9B3B6" stroke="#F9B3B6" stroke-width="1" />
        <path d="M5.95176 0.850356L13.604 0L26.3578 0.850356L39.9618 2.55107L32.3096 4.25178L17.005 3.40142L0 1.70071L5.95176 0.850356Z" transform="translate(144.543 99.47958)" id="New-shape-42" fill="#F9B3B6" stroke="#F9B3B6" stroke-width="1" />
      </g>
    </g>
  </g>
</svg>