<?xml version="1.0" encoding="utf-8"?>
<svg width="29px" height="17px" viewBox="0 0 29 17" version="1.1" xmlns:xlink="http://www.w3.org/1999/xlink" xmlns="http://www.w3.org/2000/svg">
  <desc>Created with Lunacy</desc>
  <defs>
    <rect width="29" height="17" id="artboard_1" />
    <clipPath id="clip_1">
      <use xlink:href="#artboard_1" clip-rule="evenodd" />
    </clipPath>
  </defs>
  <g id="recieved_letter" clip-path="url(#clip_1)">
    <use xlink:href="#artboard_1" stroke="none" fill="#FFFFFF" fill-opacity="0" />
    <g id="Letter-Front" transform="translate(1 5)">
      <path d="M1.999 0L14.001 0Q14.0992 0 14.1969 0.00962573Q14.2947 0.0192515 14.391 0.0384102Q14.4873 0.057569 14.5813 0.0860763Q14.6753 0.114584 14.766 0.152165Q14.8567 0.189746 14.9433 0.236039Q15.0299 0.282333 15.1116 0.336892Q15.1932 0.391452 15.2692 0.453752Q15.3451 0.516052 15.4145 0.585494Q15.4839 0.654935 15.5462 0.730848Q15.6085 0.806761 15.6631 0.888415Q15.7177 0.970069 15.764 1.05668Q15.8103 1.14329 15.8478 1.23402Q15.8854 1.32474 15.9139 1.41872Q15.9424 1.5127 15.9616 1.60901Q15.9807 1.70533 15.9904 1.80306Q16 1.9008 16 1.999L16 10.001Q16 10.0992 15.9904 10.1969Q15.9807 10.2947 15.9616 10.391Q15.9424 10.4873 15.9139 10.5813Q15.8854 10.6753 15.8478 10.766Q15.8103 10.8567 15.764 10.9433Q15.7177 11.0299 15.6631 11.1116Q15.6085 11.1932 15.5462 11.2692Q15.4839 11.3451 15.4145 11.4145Q15.3451 11.4839 15.2692 11.5462Q15.1932 11.6085 15.1116 11.6631Q15.0299 11.7177 14.9433 11.764Q14.8567 11.8103 14.766 11.8478Q14.6753 11.8854 14.5813 11.9139Q14.4873 11.9424 14.391 11.9616Q14.2947 11.9807 14.1969 11.9904Q14.0992 12 14.001 12L1.999 12Q1.9008 12 1.80306 11.9904Q1.70533 11.9807 1.60901 11.9616Q1.5127 11.9424 1.41872 11.9139Q1.32474 11.8854 1.23402 11.8478Q1.14329 11.8103 1.05668 11.764Q0.970069 11.7177 0.888415 11.6631Q0.806761 11.6085 0.730848 11.5462Q0.654935 11.4839 0.585494 11.4145Q0.516052 11.3451 0.453752 11.2692Q0.391452 11.1932 0.336892 11.1116Q0.282333 11.0299 0.236039 10.9433Q0.189746 10.8567 0.152165 10.766Q0.114584 10.6753 0.0860763 10.5813Q0.057569 10.4873 0.0384102 10.391Q0.0192515 10.2947 0.00962573 10.1969Q0 10.0992 0 10.001L0 1.999Q0 1.9008 0.00962573 1.80306Q0.0192515 1.70533 0.0384102 1.60901Q0.057569 1.5127 0.0860763 1.41872Q0.114584 1.32474 0.152165 1.23402Q0.189746 1.14329 0.236039 1.05668Q0.282333 0.970069 0.336892 0.888415Q0.391452 0.806761 0.453752 0.730848Q0.516052 0.654935 0.585494 0.585494Q0.654935 0.516052 0.730848 0.453752Q0.806761 0.391452 0.888415 0.336892Q0.970069 0.282333 1.05668 0.236039Q1.14329 0.189746 1.23402 0.152165Q1.32474 0.114584 1.41872 0.0860763Q1.5127 0.057569 1.60901 0.0384102Q1.70533 0.0192515 1.80306 0.00962573Q1.9008 0 1.999 0L1.999 0Z" id="Rectangle-4" fill="#000000" stroke="none" />
      <path d="M0 0L12.4 0L12.4 8.4L0 8.4L0 0Z" transform="translate(1.799927 1.800018)" id="Rectangle-3" fill="#FFFFFF" stroke="none" />
      <path d="M8 0L16 5.2L0 5.2L8 0Z" transform="matrix(1 0 0 -1 0 7.000031)" id="Triangle-2" fill="#000000" stroke="none" />
      <path d="M5 0L10 3.2L0 3.2L5 0Z" transform="matrix(1 0 0 -1 3.000061 5.000031)" id="Triangle-3" fill="#FFFFFF" stroke="none" />
    </g>
    <g id="aRROW" transform="matrix(1 0 0 -1 17.68634 17.00003)">
      <path d="M0 0L11 0L11 2L0 2L0 0Z" transform="matrix(-4.371139E-08 1 -1 -4.371139E-08 6.65686 1.000031)" id="Rectangle-13" fill="#000000" stroke="none" />
      <path d="M0 0L8 0L8 2L0 2L0 0Z" transform="matrix(-0.7071065 0.707107 -0.707107 -0.7071065 7.071045 1.414246)" id="Rectangle-14" fill="#000000" stroke="none" />
      <path d="M0 0L8 0L8 2L0 2L0 0Z" transform="matrix(0.7071066 0.7071069 0.7071069 -0.7071066 4.242553 1.414215)" id="Rectangle-15" fill="#000000" stroke="none" />
      <path d="M0 0L2 0L2 2L0 2L0 0Z" transform="matrix(-4.371139E-08 1 -1 -4.371139E-08 6.656738 13.00006)" id="Rectangle-11" fill="#000000" stroke="none" />
      <path d="M0 0L1 0L1 2L0 2L0 0Z" transform="matrix(-4.371139E-08 1 -1 -4.371139E-08 6.656738 16.00003)" id="Rectangle-16" fill="#000000" stroke="none" />
    </g>
    <g id="movement" transform="matrix(1 0 0 -1 4 4.000031)">
      <path d="M0 0L3 0L3 2L0 2L0 0Z" transform="matrix(-4.371139E-08 1 -1 -4.371139E-08 5.999878 3.051758E-05)" id="Rectangle-8" fill="#000000" stroke="none" />
      <path d="M0 0L4 0L4 2L0 2L0 0Z" transform="matrix(-4.371139E-08 1 -1 -4.371139E-08 9.999878 0)" id="Rectangle-12" fill="#000000" stroke="none" />
      <path d="M0 0L2 0L2 2L0 2L0 0Z" transform="matrix(-4.371139E-08 1 -1 -4.371139E-08 2 0)" id="Rectangle-9" fill="#000000" stroke="none" />
    </g>
  </g>
</svg>