<?xml version="1.0" encoding="utf-8"?>
<svg width="49px" height="49px" viewBox="0 0 49 49" version="1.1" xmlns:xlink="http://www.w3.org/1999/xlink" xmlns="http://www.w3.org/2000/svg">
  <desc>Created with Lunacy</desc>
  <g id="Settings">
    <path d="M0 9.5C0 4.26175 4.26153 0 9.49951 0C14.7375 0 19 4.26175 19 9.5C19 14.7383 14.7375 19 9.49951 19C4.26153 19 0 14.7383 0 9.5ZM3 9.5C3 13.0839 5.91592 16 9.49957 16C13.0832 16 16 13.0839 16 9.5C16 5.91526 13.0832 3 9.49957 3C5.91592 3 3 5.91526 3 9.5Z" transform="translate(15 15)" id="Fill-1016" fill="#000000" fill-rule="evenodd" stroke="none" />
    <path d="M47.8962 20.2541C48.3464 20.3135 48.7009 20.6659 48.7633 21.115C48.9204 22.2579 49 23.3968 49 24.4994C49 25.6021 48.9204 26.7409 48.7633 27.8829C48.7009 28.332 48.3464 28.6854 47.8962 28.7438L42.204 29.488C41.8122 30.8806 41.2573 32.2199 40.5473 33.4836L44.049 38.0381C44.325 38.3976 44.327 38.8981 44.0541 39.2596C42.6864 41.0671 41.076 42.6782 39.2683 44.0457C38.9067 44.3196 38.4072 44.3176 38.0477 44.0417L33.4935 40.5425C32.2286 41.2534 30.8881 41.8102 29.4943 42.202L28.749 47.8943C28.6896 48.3435 28.3381 48.6989 27.8889 48.7613C26.7438 48.9194 25.6028 49 24.496 49C23.3952 49 22.2602 48.9205 21.1221 48.7634C20.673 48.7019 20.3195 48.3465 20.2611 47.8974L19.5158 42.208C18.1199 41.8163 16.7765 41.2594 15.5085 40.5475L10.9544 44.0477C10.5938 44.3236 10.0943 44.3256 9.73273 44.0528C8.91193 43.4325 8.1143 42.7447 7.36299 42.0096L6.99137 41.637C6.25215 40.8838 5.56731 40.0893 4.94794 39.2707C4.674 38.9092 4.67602 38.4087 4.95197 38.0492L8.45168 33.4967C7.73864 32.2289 7.1807 30.8846 6.78692 29.4859L1.09574 28.7418C0.645558 28.6824 0.291055 28.3299 0.228614 27.8808C0.0916471 26.889 0.0151067 25.8719 0 24.8569L0 24.1561C0.0151067 23.1269 0.0916471 22.1089 0.228614 21.118C0.291055 20.6689 0.645558 20.3155 1.09574 20.2571L6.78692 19.5119C7.1807 18.1142 7.73864 16.7699 8.45168 15.5012L4.95197 10.9487C4.67602 10.5892 4.674 10.0897 4.94794 9.7272C5.56731 8.90853 6.25215 8.11504 6.98432 7.36787L7.35493 6.9963C8.1143 6.25316 8.91193 5.5664 9.73273 4.9451C10.0953 4.67221 10.5938 4.67423 10.9544 4.95014L15.5085 8.45036C16.7765 7.73843 18.1199 7.18259 19.5158 6.79088L20.2611 1.1015C20.3195 0.651387 20.673 0.296934 21.1221 0.234502C23.4043 -0.0796726 25.6048 -0.0776587 27.8889 0.237523C28.3381 0.299955 28.6896 0.654408 28.749 1.10352L29.4943 6.79591C30.8881 7.18863 32.2286 7.74548 33.4935 8.4564L38.0477 4.95719C38.4072 4.68027 38.9067 4.67926 39.2683 4.95316C41.076 6.32062 42.6864 7.93177 44.0541 9.73928C44.327 10.1008 44.325 10.6012 44.049 10.9597L40.5473 15.5143C41.2573 16.779 41.8122 18.1183 42.204 19.5099L47.8962 20.2541ZM40.5352 27.4446L45.8796 26.7456C45.9596 25.9869 46 25.234 46 24.5004C46 23.7667 45.9596 23.0138 45.8796 22.2542L40.5352 21.5552C40.1394 21.5032 39.8168 21.2134 39.7234 20.8254C39.3431 19.2425 38.7171 17.7329 37.864 16.3397C37.656 15.9999 37.6791 15.5656 37.9217 15.2499L41.2093 10.9731C40.2646 9.80815 39.2005 8.7433 38.0344 7.79784L33.7589 11.0829C33.4411 11.3265 33.0078 11.3486 32.6688 11.1407C31.2744 10.2857 29.7635 9.65891 28.1785 9.27669C27.7914 9.1833 27.5015 8.86076 27.4495 8.46601L26.7495 3.12155C25.2318 2.9598 23.7768 2.9598 22.2592 3.11963L21.5601 8.46216C21.5081 8.85691 21.2182 9.18041 20.8302 9.27283C19.2432 9.65314 17.7304 10.2799 16.3331 11.1349C15.9923 11.3428 15.5599 11.3197 15.244 11.0771L10.9666 7.7911C10.4495 8.21184 9.94486 8.66146 9.46146 9.13419L9.12057 9.47502C8.65643 9.94968 8.21058 10.4484 7.79169 10.9635L11.0783 15.2383C11.3209 15.5551 11.344 15.9883 11.1351 16.3282C10.278 17.7262 9.6502 19.2397 9.2679 20.8273C9.1745 21.2153 8.85191 21.5051 8.45709 21.5571L3.11363 22.2561C3.04718 22.8944 3.00963 23.5405 3 24.1865L3 24.8287C3.00963 25.4641 3.04718 26.1073 3.11267 26.7437L8.45709 27.4427C8.85191 27.4946 9.1745 27.7844 9.2679 28.1725C9.6502 29.7611 10.278 31.2746 11.1351 32.6716C11.344 33.0124 11.3209 33.4457 11.0783 33.7615L7.79169 38.0363C8.21058 38.5523 8.65835 39.053 9.12731 39.5324L9.4682 39.8742C9.94679 40.3402 10.4495 40.7889 10.9666 41.2096L15.244 37.9226C15.5599 37.68 15.9932 37.6579 16.3331 37.8649C17.7304 38.7198 19.2432 39.3466 20.8302 39.7279C21.2182 39.8203 21.5081 40.1429 21.5601 40.5386L22.2592 45.8811C23.7768 46.04 25.2318 46.04 26.7495 45.8792L27.4495 40.5347C27.5015 40.139 27.7914 39.8165 28.1785 39.7231C29.7635 39.3408 31.2744 38.7141 32.6688 37.8601C33.0087 37.6511 33.443 37.6743 33.7589 37.9169L38.0344 41.2029C39.2005 40.2574 40.2646 39.1926 41.2093 38.0266L37.9217 33.7499C37.6791 33.4341 37.656 33.0009 37.864 32.661C38.7171 31.2669 39.3431 29.7582 39.7234 28.1744C39.8168 27.7864 40.1394 27.4966 40.5352 27.4446Z" id="Fill-1017" fill="#000000" fill-rule="evenodd" stroke="none" />
  </g>
</svg>