<?xml version="1.0" encoding="utf-8"?>
<svg width="49px" height="49px" viewBox="0 0 49 49" version="1.1" xmlns:xlink="http://www.w3.org/1999/xlink" xmlns="http://www.w3.org/2000/svg">
  <desc>Created with Lunacy</desc>
  <g id="Settings">
    <path d="M48.7633 21.115C48.7009 20.6659 48.3464 20.3135 47.8962 20.2541L42.204 19.5099C41.8122 18.1183 41.2573 16.779 40.5473 15.5143L44.049 10.9597C44.325 10.6012 44.327 10.1008 44.0541 9.73928C42.6864 7.93177 41.076 6.32062 39.2683 4.95316C38.9067 4.67926 38.4072 4.68027 38.0477 4.95719L33.4935 8.4564C32.2286 7.74548 30.8881 7.18863 29.4943 6.79591L28.749 1.10352C28.6896 0.654408 28.3381 0.299955 27.8889 0.237523C25.6048 -0.0776587 23.4043 -0.0796726 21.1221 0.234502C20.673 0.296934 20.3195 0.651387 20.2611 1.1015L19.5158 6.79088C18.1199 7.18259 16.7765 7.73843 15.5085 8.45036L10.9544 4.95014C10.5938 4.67423 10.0953 4.67221 9.73273 4.9451C8.91193 5.5664 8.1143 6.25316 7.35493 6.9963L6.98432 7.36787C6.25215 8.11504 5.56731 8.90853 4.94794 9.7272C4.674 10.0897 4.67602 10.5892 4.95197 10.9487L8.45168 15.5012C7.73864 16.7699 7.1807 18.1142 6.78692 19.5119L1.09574 20.2571C0.645558 20.3155 0.291055 20.6689 0.228614 21.118C0.0916471 22.1089 0.0151067 23.1269 0 24.1561L0 24.8569C0.0151067 25.8719 0.0916471 26.889 0.228614 27.8808C0.291055 28.3299 0.645558 28.6824 1.09574 28.7418L6.78692 29.4859C7.1807 30.8846 7.73864 32.2289 8.45168 33.4967L4.95197 38.0492C4.67602 38.4087 4.674 38.9092 4.94794 39.2707C5.56731 40.0893 6.25215 40.8838 6.99137 41.637L7.36299 42.0096C8.1143 42.7447 8.91193 43.4325 9.73273 44.0528C10.0943 44.3256 10.5938 44.3236 10.9544 44.0477L15.5085 40.5475C16.7765 41.2594 18.1199 41.8163 19.5158 42.208L20.2611 47.8974C20.3195 48.3465 20.673 48.7019 21.1221 48.7634C22.2602 48.9205 23.3952 49 24.496 49C25.6028 49 26.7438 48.9194 27.8889 48.7613C28.3381 48.6989 28.6896 48.3435 28.749 47.8943L29.4943 42.202C30.8881 41.8102 32.2286 41.2534 33.4935 40.5425L38.0477 44.0417C38.4072 44.3176 38.9067 44.3196 39.2683 44.0457C41.076 42.6782 42.6864 41.0671 44.0541 39.2596C44.327 38.8981 44.325 38.3976 44.049 38.0381L40.5473 33.4836C41.2573 32.2199 41.8122 30.8806 42.204 29.488L47.8962 28.7438C48.3464 28.6854 48.7009 28.332 48.7633 27.8829C48.9204 26.7409 49 25.6021 49 24.4994C49 23.3968 48.9204 22.2579 48.7633 21.115L48.7633 21.115Z" id="Fill-1017" fill="#000000" stroke="none" />
    <path d="M0 9.5C0 4.26175 4.26153 0 9.49951 0C14.7375 0 19 4.26175 19 9.5C19 14.7383 14.7375 19 9.49951 19C4.26153 19 0 14.7383 0 9.5ZM3 9.5C3 13.0839 5.91592 16 9.49957 16C13.0832 16 16 13.0839 16 9.5C16 5.91526 13.0832 3 9.49957 3C5.91592 3 3 5.91526 3 9.5Z" transform="translate(15 15)" id="Fill-1016" fill="#FFFFFF" fill-rule="evenodd" stroke="none" />
  </g>
</svg>